<svg width="480" height="499" viewBox="0 0 480 499" fill="none" xmlns="http://www.w3.org/2000/svg">
<path d="M47.2269 241.05C43.8298 213.389 43.5758 190.404 45.5204 171.276C45.5204 171.276 -4.42755 204.723 11.9903 229.481C20.3837 242.142 35.0038 243.359 47.2904 241.529C47.2705 241.37 47.2467 241.214 47.2269 241.05Z" fill="#FF4755"/>
<path d="M44.8856 215.546C33.5514 216.813 20.7688 215.151 12.8317 204.388C8.2917 212.724 6.73207 221.549 11.9904 229.485C20.3838 242.142 35.0039 243.359 47.2945 241.529C47.2706 241.37 47.2508 241.214 47.227 241.05C46.1237 232.064 45.3578 223.577 44.8856 215.546Z" fill="#FC2B3A"/>
<path d="M56.6085 125.762C29.4716 132.949 10.3869 139.602 12.0974 151.711C13.6729 162.854 35.7141 169.055 45.5204 171.276C47.4134 152.689 51.3859 137.757 56.6085 125.762Z" fill="#FFA812"/>
<path d="M20.487 138.602C14.5025 142.277 11.3594 146.484 12.0975 151.711C13.6691 162.854 35.7143 169.055 45.5205 171.276C46.1277 165.33 46.9452 159.761 47.9532 154.542C38.0359 151.852 23.8325 146.686 20.487 138.602V138.602Z" fill="#FF9A00"/>
<path d="M88.1187 87.5793C103.584 77.9621 118.446 76.9236 123.697 76.8018C154.056 76.1019 170.502 86.7728 181.328 102.26C190.638 97.5578 209.719 85.7989 203.917 70.6694C195.67 49.164 173.093 61.7522 173.093 61.7522C173.093 61.7522 179.625 46.5125 165.493 36.61C151.361 26.7114 134.062 35.9823 134.062 35.9823C129.745 4.42612 83.4716 -2.47097 65.6449 30.4205C51.4733 56.5709 78.4554 80.2371 88.1187 87.5793Z" fill="#FF4755"/>
<path d="M181.328 102.26C186.649 99.574 195.158 94.5791 200.392 87.9673C185.28 72.9215 164.211 58.7583 137.634 57.1491C107.878 55.3459 85.6503 62.7338 70.9349 70.4792C76.8044 78.411 84.0192 84.4674 88.1187 87.5793C103.584 77.9621 118.442 76.9236 123.693 76.8018C154.056 76.1019 170.501 86.7728 181.328 102.26Z" fill="#FC2B3A"/>
<path d="M123.697 76.8018C109.743 77.1252 27.92 83.9044 47.2269 241.05C64.1646 378.923 165.85 422.505 245.475 422.269C361.205 421.926 505.497 328.715 463.232 182.046C463.232 182.046 450.45 127.539 406.383 129.886C362.317 132.233 363.757 215.291 268.675 206.157C172.22 196.89 224.275 74.4774 123.697 76.8018V76.8018Z" fill="#F5A9A2"/>
<path d="M245.475 395.974C165.85 396.21 64.1647 352.628 47.227 214.755C45.8578 203.609 45.0125 193.242 44.5998 183.556C43.8101 200.044 44.5284 219.077 47.227 241.05C64.1647 378.923 165.85 422.505 245.475 422.269C350.883 421.957 479.98 344.601 470.233 219.986C461.427 329.095 343.256 395.685 245.475 395.974Z" fill="#F5A9A2"/>
<path d="M394.743 364.288C353.145 396.328 297.344 415.551 245.479 415.703C245.273 415.703 245.066 415.703 244.856 415.703C222.231 415.703 188.281 412.043 153.853 394.81C121.073 378.402 95.647 353.572 78.2767 321.008C76.352 317.401 71.7366 315.971 67.9784 317.816C64.2162 319.661 62.724 324.081 64.6488 327.688C83.4914 363.014 111.12 389.971 146.766 407.817C168.216 418.552 189.455 424.407 208.274 427.439V467.958L171.311 455.636C167.315 454.308 162.953 456.332 161.564 460.159C160.179 463.986 162.291 468.167 166.283 469.499L190.955 477.723L166.62 484.636C162.568 485.788 160.255 489.87 161.457 493.758C162.644 497.589 166.969 499.841 170.97 498.704L218.1 485.313C221.35 484.388 223.581 481.528 223.581 478.275V429.383C231.359 430.106 238.526 430.379 244.86 430.379C245.082 430.379 245.304 430.376 245.527 430.376C261.48 430.33 277.783 428.58 293.967 425.308V467.958L257.004 455.636C253.011 454.304 248.65 456.328 247.261 460.159C245.872 463.986 247.983 468.167 251.975 469.499L276.648 477.719L252.313 484.636C248.261 485.788 245.951 489.87 247.15 493.754C248.336 497.589 252.666 499.841 256.666 498.704L303.797 485.309C307.043 484.388 309.273 481.524 309.273 478.275V421.751C343.716 412.694 376.933 396.826 404.331 375.724C407.625 373.187 408.149 368.568 405.502 365.411C402.855 362.253 398.037 361.747 394.743 364.288V364.288Z" fill="black"/>
<path d="M66.4584 294.214C60.5493 277.711 56.3466 259.523 53.9655 240.156C46.2308 177.177 54.3465 130.404 77.4394 104.892C94.5199 86.0233 115.244 83.5506 123.359 83.3642C144.412 82.8772 159.211 88.0472 169.882 99.6311C179.74 110.332 185.249 125.287 191.082 141.12C202.293 171.562 215.001 206.059 263.385 212.72C267.568 213.294 271.449 210.513 272.048 206.5C272.652 202.49 269.747 198.773 265.564 198.195C226.351 192.797 216.231 165.323 205.516 136.236C201.567 125.511 197.44 114.319 191.598 104.2C208.897 93.5139 215.925 80.336 210.941 67.3369C207.036 57.1529 200.357 52.9949 195.44 51.2944C190.749 49.6738 186.011 49.6395 181.855 50.2634C181.264 43.3664 178.121 35.6475 169.676 29.7358C158.814 22.1235 146.845 23.143 138.888 25.2391C133.947 12.6509 122.526 3.51312 107.87 1.03656C87.706 -2.36444 68.157 7.45431 58.0729 26.0571C44.195 51.6558 62.5455 74.603 75.2884 86.3847C72.0938 88.9602 68.9348 91.9009 65.879 95.2752C59.7 102.104 54.4814 110.055 50.1994 119.082C27.2612 125.203 0.803025 133.188 3.49369 152.255C4.96205 162.667 16.0739 169.511 28.4796 173.947C28.0272 174.335 27.5668 174.731 27.0866 175.145C17.3756 183.549 10.1489 191.827 5.60892 199.747C-3.34409 215.368 0.068846 226.632 4.50964 233.327C11.5974 244.017 22.9276 249.522 37.6072 249.518C38.3295 249.518 39.0597 249.503 39.7978 249.476C42.4131 267.06 46.5007 283.68 51.9812 298.981C53.3345 302.759 57.7554 304.836 61.7041 303.538C65.7044 302.218 67.8316 298.045 66.4584 294.214ZM73.7764 61.5202C67.4704 51.2145 66.7759 41.8256 71.6572 32.821C80.0864 17.2693 95.0001 13.7655 105.215 15.4889C114.117 16.9915 124.248 23.1658 126.002 35.9785C126.332 38.379 127.891 40.4561 130.138 41.5517C132.388 42.6512 135.074 42.6055 137.289 41.449C137.424 41.3805 150.683 34.6014 160.648 41.5822C169.545 47.8135 166.112 57.1453 165.719 58.1192C164.477 61.0142 165.307 64.3353 167.755 66.401C170.204 68.4705 173.772 68.8129 176.609 67.2722C178.776 66.0929 185.455 63.4147 190.293 65.1152C191.293 65.4652 194.325 66.5304 196.575 72.4003C197.519 74.8617 198.122 78.8181 192.479 84.6918C189.721 87.5602 186.229 90.0482 183.09 91.9846C171.069 77.829 153.088 68.014 122.99 68.695C116.287 68.8472 102.719 70.2395 88.202 77.8784C83.6938 74.0209 77.9473 68.3336 73.7764 61.5202ZM18.6614 150.288C17.9511 145.24 31.4599 140.017 43.5679 136.296C41.1868 144.103 39.3534 152.537 38.0636 161.572C25.9238 157.851 19.0861 153.271 18.6614 150.288ZM17.4312 225.456C11.4863 216.49 19.4631 204.415 27.2057 195.867C30.0313 192.744 33.0434 189.849 35.9007 187.307C35.4483 201.901 36.1309 217.745 37.9604 234.83C28.4954 234.879 21.6021 231.749 17.4312 225.456Z" fill="black"/>
<path d="M471.654 179.939C471.193 178.067 467.626 164.341 458.768 150.772C445.759 130.845 427.758 120.897 406.701 122.027C385.791 123.137 373.972 138.419 361.459 154.595C346.07 174.487 330.156 195.057 294.463 198.758C290.26 199.192 287.224 202.814 287.676 206.842C288.133 210.871 291.907 213.785 296.11 213.347C338.462 208.957 358.031 183.663 373.754 163.337C384.961 148.85 393.811 137.407 407.55 136.677C422.813 135.874 435.608 143.125 445.592 158.254C453.629 170.432 456.736 183.237 456.764 183.355C456.792 183.469 456.819 183.583 456.855 183.701C465.991 215.402 466.534 245.946 458.474 274.485C451.184 300.305 437.048 324.047 416.471 345.054C413.574 348.01 413.729 352.651 416.809 355.424C419.849 358.164 424.773 358.015 427.627 355.101C449.946 332.321 465.296 306.487 473.253 278.32C482.024 247.255 481.488 214.154 471.654 179.939V179.939Z" fill="black"/>
<path d="M308.011 327.574C263.008 337.997 226.597 330.587 199.785 305.539C179.542 286.629 172.398 264.138 172.299 263.826C171.113 259.942 166.866 257.72 162.814 258.85C158.759 259.984 156.425 264.054 157.612 267.946C157.929 268.996 165.704 293.933 188.598 315.579C213.731 339.333 243.65 346.705 271.108 346.705C285.66 346.705 299.519 344.636 311.607 341.836C366.511 329.118 394.902 283.479 389.719 248.487C389.124 244.478 385.255 241.689 381.064 242.256C376.881 242.827 373.968 246.54 374.564 250.553C376.595 264.267 371.543 280.736 361.051 294.602C352.391 306.042 336.16 321.053 308.011 327.574V327.574Z" fill="black"/>
<path d="M104.925 146.199C104.925 156.653 111.795 164.84 120.561 164.84C129.328 164.84 136.193 156.653 136.193 146.199C136.193 135.749 129.328 127.562 120.561 127.562C111.795 127.562 104.925 135.749 104.925 146.199Z" fill="black"/>
</svg>
