<svg width="512" height="393" viewBox="0 0 512 393" fill="none" xmlns="http://www.w3.org/2000/svg">
<path d="M451.586 19.2456H177.381L182.608 22.3373L159.181 12.7353C145.171 6.68982 129.19 9.18838 117.399 19.2456L91.6923 10.1267C75.2312 6.0326 58.1193 13.3188 48.8474 28.3646L9.54227 103.805C2.1472 117.656 6.70635 135.274 19.722 143.144C23.8012 145.615 28.4196 146.91 33.1153 146.91H82.5238C87.6905 146.91 92.575 149.39 95.8317 153.658L156.414 233.074C158.891 236.329 160.244 240.387 160.244 244.573V384H194.52L217.322 261.634C219.019 253.227 226.002 247.217 234.082 247.217H425.879L451.586 274.573L434.448 384H468.724L503 265.455L490.952 233.41C487.688 224.711 487.688 215.009 490.952 206.309L503 174.265V73.9573C502.999 43.7385 479.983 19.2456 451.586 19.2456Z" fill="#F5A9A2"/>
<path d="M159.171 238.786C159.764 240.646 160.073 242.587 160.081 244.547V383.904H194.415L217.255 261.6C218.955 253.197 225.95 247.189 234.043 247.189H426.165L451.916 274.533L434.749 383.904H469.083L503.416 265.418L491.348 233.39C488.078 224.695 488.078 214.998 491.348 206.302L503.416 174.274V74.0167C503.416 64.6833 501.167 55.5059 496.867 47.3667C425.024 174.275 251.065 221.979 159.171 238.786Z" fill="#F5A9A2"/>
<path d="M62.086 27.6895C53.9834 18.01 42.8328 11.8031 30.7307 10.218H5.58191C5.58191 29.4402 9.2042 43.7767 22.7488 51.5057L44.9191 61.1029L62.086 27.6895Z" fill="#8F5436"/>
<path d="M82.8058 55.7889H65.6389V74.0178H82.8058V55.7889Z" fill="#75462E"/>
<path d="M474.516 155.901C456.43 153.522 442.972 137.016 443.332 117.676V110.821C443.342 100.567 435.514 92.2551 425.857 92.2466C425.848 92.2466 425.848 92.2466 425.84 92.2466H408.999C404.261 92.2466 400.415 88.1631 400.415 83.1322C400.415 78.1013 404.261 74.0178 408.999 74.0178H425.84C444.98 74.0178 460.499 90.4959 460.499 110.821V118.286C460.251 127.619 466.379 135.785 475.006 137.608C484.37 139.167 493.159 132.368 494.627 122.424C494.765 121.485 494.833 120.537 494.833 119.589V83.1311C494.833 78.1002 498.679 74.0167 503.417 74.0167C508.154 74.0167 512 78.1002 512 83.1311V119.589C512 139.722 496.636 156.046 477.675 156.055C476.618 156.056 475.563 156 474.516 155.901Z" fill="#75462E"/>
<path d="M151.499 64.9034H134.332C129.594 64.9034 125.748 60.8199 125.748 55.789C125.748 50.758 129.594 46.6745 134.332 46.6745H150.923C156.356 45.8264 163.867 42.6274 171.025 27.5346L155.936 21.364C144.898 16.5424 132.272 18.3839 122.864 26.1856C119.337 29.5491 113.904 29.2298 110.736 25.4838C107.568 21.7378 107.869 15.9688 111.406 12.6053C125.629 0.245876 145.062 -2.89765 162.099 4.40199L185.574 13.9906C189.994 15.7958 192.209 21.0724 190.501 25.7669C190.501 25.7669 190.501 25.7668 190.501 25.7765C181.763 49.8651 169.36 62.671 152.571 64.913C152.211 64.9397 151.851 64.9311 151.499 64.9034Z" fill="#8F5436"/>
<path d="M451.916 283.647C449.642 283.647 447.453 282.69 445.847 280.977L400.845 233.19C389.54 221.259 383.206 205.009 383.249 188.084V174.276C383.249 169.245 387.095 165.162 391.833 165.162C396.571 165.162 400.416 169.245 400.416 174.276V188.084C400.382 200.179 404.906 211.782 412.982 220.303L457.985 268.09C461.332 271.653 461.332 277.423 457.985 280.978C456.37 282.68 454.19 283.647 451.916 283.647Z" fill="#8F5436"/>
<path d="M83 56H66V74H83V56Z" fill="black"/>
<path d="M451.917 10.3881H177.265V10.6796L162.115 4.49382C146.82 -2.05598 129.474 -0.23463 115.69 9.36747L94.1465 1.74259C80.7405 -2.16594 66.3899 0.576756 55.1112 9.20306C47.9354 4.00166 39.4389 1.24081 30.7534 1.27711H5.60693C0.869342 1.27711 -2.97605 5.35859 -2.97605 10.387C-2.97605 27.5777 -0.512705 48.7207 19.1166 59.8986L21.6916 61.1744L1.68509 99.4355C-8.08178 117.646 -2.08285 140.812 15.0741 151.179C20.4645 154.431 26.5579 156.144 32.7631 156.144H82.2523C84.8353 156.144 87.2815 157.382 88.913 159.514L149.594 238.852C150.839 240.473 151.517 242.505 151.517 244.591V383.89C151.517 388.919 155.362 393 160.1 393H194.432C198.525 393 202.045 389.921 202.843 385.657L225.664 263.585C226.514 259.385 230.016 256.388 234.058 256.388H422.607L442.725 277.733L426.289 382.387C425.508 387.351 428.667 392.043 433.335 392.872C433.798 392.954 434.279 392.999 434.751 392.999H469.083C472.851 392.999 476.181 390.394 477.288 386.568L511.62 268.14C512.195 266.144 512.118 264.004 511.388 262.072L499.312 230.06C496.849 223.546 496.849 216.277 499.312 209.764L511.388 177.751C511.792 176.676 511.998 175.519 511.998 174.363V74.1544C511.954 38.9563 485.081 10.4244 451.917 10.3881ZM26.8406 43.6293C18.8501 38.619 14.1125 29.3361 14.5329 19.497H30.7544C34.7798 19.4788 38.754 20.4354 42.376 22.3027C41.9385 22.9496 41.4145 23.5144 41.0111 24.1881L30.0251 45.2136L26.8406 43.6293ZM494.831 101.486V119.706C494.831 129.773 487.149 137.926 477.665 137.926C468.181 137.926 460.499 129.773 460.499 119.706V110.596C460.499 90.4729 445.127 74.1566 426.167 74.1566H400.418V92.3764H426.167C435.651 92.3764 443.333 100.53 443.333 110.596V119.706C443.333 139.83 458.704 156.146 477.665 156.146C483.707 156.11 489.638 154.361 494.831 151.081V172.607L483.373 203.007C479.27 213.865 479.27 225.972 483.373 236.832L494.316 265.856L462.748 374.782H444.887L460.336 276.077C460.791 273.171 459.898 270.219 457.941 268.133L412.984 220.37C404.908 211.853 400.385 200.255 400.419 188.167V174.366H383.253V188.167C383.21 205.084 389.545 221.327 400.848 233.251L405.439 238.134H234.057C221.886 238.198 211.398 247.244 208.858 259.879L187.383 374.782H168.682V244.592C168.673 238.324 166.639 232.249 162.922 227.375L102.241 148.028C97.3653 141.623 90.0104 137.907 82.2513 137.925H32.7631C22.5063 137.935 14.1899 129.116 14.1899 118.23C14.1899 114.777 15.0399 111.379 16.6613 108.391L55.765 33.4987C62.9579 22.0112 75.9868 16.2995 88.7229 19.0326L114.472 28.1425C117.382 29.145 120.574 28.4521 122.883 26.3201C132.29 18.5222 144.915 16.6817 155.952 21.5009L171.041 27.6685C163.884 42.7912 156.373 45.9887 150.94 46.799H134.35V65.0189H151.516C151.876 65.0189 152.237 65.0007 152.589 64.9463C168.682 62.8239 180.698 50.8357 189.401 28.6069H451.917C475.606 28.6347 494.806 49.0132 494.832 74.1566L494.831 101.486Z" fill="black"/>
</svg>
