<svg width="497" height="478" viewBox="0 0 497 478" fill="none" xmlns="http://www.w3.org/2000/svg">
<path d="M287.144 94.376C323.968 131.2 347.856 178.976 355.224 230.528L376 376L230.528 355.216C178.976 347.848 131.2 323.96 94.376 287.136C58.176 250.936 34.464 204.136 26.68 153.544L8.26401 33.824C7.17601 26.768 9.52001 19.616 14.568 14.568C19.616 9.52 26.768 7.17599 33.824 8.26399L153.552 26.68C204.144 34.464 250.944 58.176 287.144 94.376Z" fill="#DB9B7C"/>
<path d="M29.088 166.76C28.16 162.384 27.36 157.984 26.68 153.544L8.26401 33.824C7.17601 26.768 9.52001 19.616 14.568 14.568C19.616 9.52 26.768 7.17599 33.824 8.26399L153.552 26.68C157.984 27.36 162.392 28.168 166.768 29.096C172.696 42.176 176 56.704 176 72C176 129.44 129.44 176 72 176C56.696 176 42.168 172.696 29.088 166.76V166.76Z" fill="#EFBE9A"/>
<path d="M249.728 357.96L230.528 355.216C178.976 347.848 131.2 323.96 94.376 287.136C82.976 275.744 72.816 263.288 64 250V277.672C64 298.92 75.32 318.56 93.712 329.208L171.672 374.344C197.16 389.088 229.6 383 248 360L249.728 357.96Z" fill="#DB9B7C"/>
<path d="M368 312L380.32 287.36C397.872 252.248 399.08 211.192 383.616 175.104L370.664 144.88C349.896 96.432 302.592 64.8 250 64.016L250.008 64C263.296 72.816 275.744 82.976 287.144 94.376C323.968 131.2 347.856 178.976 355.224 230.528L366.88 312.16L368 312Z" fill="#DB9B7C"/>
<path d="M488 384C462.32 368.592 431.704 363.624 402.464 370.12L376 376L370.12 402.464C363.624 431.704 368.592 462.32 384 488L416 416L488 384Z" fill="#DB9B7C"/>
<path d="M88 71.992C79.176 71.992 72 64.816 72 55.992C72 47.168 79.176 39.992 88 39.992C96.824 39.992 104 47.168 104 55.992C103.992 64.816 96.816 71.992 88 71.992Z" fill="#606060"/>
<path d="M21.632 74.32L13.208 65.976L17.192 91.872C38.392 110.024 65.04 120 93.256 120H111.992V104H93.256C66.2 104 40.776 93.464 21.632 74.32V74.32Z" fill="#DB9B7C"/>
<path d="M216 143.992H184V127.992H212.68L224 116.68V88H240V120C240 122.128 239.16 124.16 237.664 125.664L221.664 141.664C220.16 143.152 218.12 143.992 216 143.992Z" fill="#EFBE9A"/>
<path d="M120 239.992H88V223.992H116.68L128 212.68V184H144V216C144 218.128 143.16 220.16 141.664 221.664L125.664 237.664C124.16 239.152 122.12 239.992 120 239.992V239.992Z" fill="#EFBE9A"/>
<path d="M192 215.992H160V199.992H188.68L200 188.68V160H216V192C216 194.128 215.16 196.16 213.664 197.664L197.664 213.664C196.16 215.152 194.12 215.992 192 215.992V215.992Z" fill="#EFBE9A"/>
<path d="M264 191.992H232V175.992H260.68L272 164.68V136H288V168C288 170.128 287.16 172.16 285.664 173.664L269.664 189.664C268.16 191.152 266.12 191.992 264 191.992V191.992Z" fill="#EFBE9A"/>
<path d="M168 287.992H136V271.992H164.68L176 260.68V232H192V264C192 266.128 191.16 268.16 189.664 269.664L173.664 285.664C172.16 287.152 170.12 287.992 168 287.992V287.992Z" fill="#EFBE9A"/>
<path d="M240 263.992H208V247.992H236.68L248 236.68V208H264V240C264 242.128 263.16 244.16 261.664 245.664L245.664 261.664C244.16 263.152 242.12 263.992 240 263.992V263.992Z" fill="#EFBE9A"/>
<path d="M312 239.992H288V223.992H308.688L320 212.68V192H336L336.008 216C336.008 218.12 335.168 220.16 333.664 221.664L317.664 237.664C316.16 239.152 314.12 239.992 312 239.992V239.992Z" fill="#EFBE9A"/>
<path d="M216 335.992H192V319.992H212.688L224 308.68V288H240L240.008 312C240.008 314.12 239.168 316.16 237.664 317.664L221.664 333.664C220.16 335.152 218.12 335.992 216 335.992V335.992Z" fill="#EFBE9A"/>
<path d="M288 311.992H256V295.992H284.68L296 284.68V256H312V288C312 290.128 311.16 292.16 309.664 293.664L293.664 309.664C292.16 311.152 290.12 311.992 288 311.992V311.992Z" fill="#EFBE9A"/>
<path d="M370.664 144.888C368.176 139.08 365.288 133.536 362.072 128.232L295.256 103.176C302.256 110.912 308.76 119.024 314.664 127.544L372.536 149.248L370.664 144.888Z" fill="#C66B60"/>
<path d="M339.712 173.528L390.008 194.424C388.32 187.88 386.32 181.4 383.624 175.104L383.28 174.296L329.488 151.944C333.208 158.984 336.696 166.152 339.712 173.528V173.528Z" fill="#C66B60"/>
<path d="M352.72 216.96L394.136 234.168C394.416 228.368 394.408 222.552 393.936 216.76L347.992 197.672C349.832 204.016 351.4 210.448 352.72 216.96Z" fill="#C66B60"/>
<path d="M184.952 379.952L177.184 341.104C171.12 338.736 165.152 336.136 159.304 333.288L166.968 371.6L171.68 374.328C175.928 376.8 180.392 378.632 184.952 379.952V379.952Z" fill="#C66B60"/>
<path d="M91.664 284.288L109.728 338.472L130.624 350.568L115.712 305.832C108.304 299.992 101.104 293.864 94.384 287.136C93.448 286.208 92.576 285.232 91.664 284.288V284.288Z" fill="#C66B60"/>
<path d="M492.117 371.053C464.565 354.791 432.117 349.612 400.733 356.46L382.701 360.403L375.389 310.029L387.477 286.235C406.125 249.548 407.397 206.88 390.981 169.17L378.029 139.434C356.285 89.5553 307.309 56.9458 252.445 55.2536C223.109 36.4341 190.085 23.8091 154.773 18.4647L35.0368 0.33784C25.5248 -1.0868 15.7408 2.04584 8.90878 8.75978C2.08478 15.4816 -1.11521 25.092 0.348785 34.4664L18.7728 152.263C24.1888 186.919 36.9648 219.316 56.0048 248.124V273.193C56.0048 296.821 68.9168 318.86 89.7008 330.706L167.661 375.114C178.381 381.222 190.093 384.173 201.653 384.173C220.885 384.173 239.661 375.948 252.909 360.592L366.317 376.531L362.309 394.272C355.341 425.142 360.605 457.074 377.141 484.182C378.589 486.551 381.197 487.999 383.997 487.999C384.165 487.999 384.325 487.992 384.485 487.984C387.469 487.803 390.101 486.008 391.309 483.324L422.061 415.256L491.253 385C493.981 383.811 495.805 381.222 495.989 378.286C496.173 375.35 494.669 372.556 492.117 371.053V371.053ZM231.661 341.694C182.149 334.736 135.405 311.737 100.037 276.939C71.3888 248.753 51.2448 214.381 40.5808 176.498C50.7248 179.418 61.2208 181.024 72.0048 181.024C133.757 181.024 184.005 131.594 184.005 70.8302C184.005 60.228 182.373 49.9013 179.397 39.9209C217.901 50.4129 252.837 70.232 281.485 98.418C316.853 133.216 340.229 179.206 347.301 227.919L366.573 360.655L231.661 341.694ZM164.869 355.318L126.797 333.634L120.205 314.177C133.077 323.181 146.853 330.832 161.205 337.302L164.869 355.318ZM363.317 145.644L372.693 167.163L340.789 154.121C336.749 145.888 332.245 137.891 327.301 130.146L362.029 142.96C362.445 143.857 362.917 144.723 363.317 145.644ZM349.709 174.814L380.773 187.509C383.077 194.814 384.541 202.275 385.429 209.776L357.285 198.269C355.149 190.327 352.637 182.503 349.709 174.814ZM373.165 279.198L371.405 282.654L363.133 225.692C362.709 222.787 362.037 219.93 361.509 217.049L386.365 227.211C385.893 245.062 381.501 262.803 373.165 279.198ZM349.293 121.448L310.669 107.194C305.045 100.283 299.181 93.5616 292.805 87.2884C288.349 82.9043 283.725 78.7327 278.997 74.7264C307.205 81.7866 332.101 98.2606 349.293 121.448ZM20.2208 19.8893C22.9408 17.2211 26.6448 15.7413 30.4368 15.7413C31.1568 15.7413 31.8848 15.7964 32.6048 15.9066L152.333 34.0335C155.253 34.4742 158.101 35.1433 160.997 35.6864C165.565 46.8474 168.005 58.6224 168.005 70.8302C168.005 122.912 124.941 165.282 72.0048 165.282C59.5968 165.282 47.6208 162.881 36.2768 158.395C35.7248 155.553 35.0448 152.751 34.5968 149.87L26.3888 97.3869C45.8848 110.775 68.9888 118.056 93.2608 118.056H111.997V102.314H93.2608C66.7008 102.314 41.7408 92.2786 22.7408 74.1045L16.1648 32.0736C15.4768 27.6265 16.9888 23.0771 20.2208 19.8893V19.8893ZM72.0048 273.185V269.682C77.2768 276.018 82.7648 282.205 88.7248 288.069C91.4048 290.706 94.2768 293.122 97.0688 295.633L105.909 321.733L97.7248 317.066C81.8528 308.038 72.0048 291.225 72.0048 273.185V273.185ZM183.133 364.897L178.989 344.527C195.285 350.431 212.149 354.854 229.397 357.278L232.749 357.751C218.637 368.471 199.981 371.304 183.133 364.897ZM412.749 402.088C410.933 402.883 409.493 404.299 408.685 406.086L383.533 461.765C375.053 441.584 373.037 419.325 377.925 397.672L382.701 376.523L404.197 371.824C426.221 367.023 448.821 369.006 469.341 377.341L412.749 402.088Z" fill="black"/>
<path d="M88.0048 70.8302C96.8288 70.8302 104.005 63.77 104.005 55.0883C104.005 46.4066 96.8288 39.3464 88.0048 39.3464C79.1808 39.3464 72.0048 46.4066 72.0048 55.0883C72.0048 63.77 79.1728 70.8302 88.0048 70.8302Z" fill="black"/>
<path d="M221.661 139.371L237.661 123.629C239.165 122.149 239.997 120.15 239.997 118.056V86.5722H223.997V114.79L212.685 125.919H184.005V141.661H216.005C218.125 141.669 220.157 140.842 221.661 139.371Z" fill="black"/>
<path d="M143.997 212.508V181.024H127.997V209.241L116.685 220.371H88.0048V236.113H120.005C122.133 236.113 124.165 235.286 125.669 233.814L141.669 218.072C143.157 216.601 143.997 214.601 143.997 212.508Z" fill="black"/>
<path d="M213.661 194.467C215.165 192.988 215.997 190.988 215.997 188.895V157.411H199.997V185.628L188.685 196.758H160.005V212.5H192.005C194.133 212.5 196.165 211.673 197.669 210.201L213.661 194.467Z" fill="black"/>
<path d="M232.005 188.895H264.005C266.133 188.895 268.165 188.068 269.669 186.596L285.669 170.854C287.173 169.375 288.005 167.376 288.005 165.282V133.798H272.005V162.015L260.693 173.145H232.005V188.895Z" fill="black"/>
<path d="M175.997 256.475L164.685 267.604H136.005V283.346H168.005C170.133 283.346 172.165 282.52 173.669 281.048L189.669 265.306C191.173 263.826 192.005 261.827 192.005 259.733V228.25H176.005V256.475H175.997Z" fill="black"/>
<path d="M263.997 236.121V204.637H247.997V232.854L236.685 243.984H208.005V259.726H240.005C242.133 259.726 244.165 258.899 245.669 257.427L261.669 241.685C263.157 240.213 263.997 238.214 263.997 236.121V236.121Z" fill="black"/>
<path d="M319.997 209.249L308.685 220.379H288.005V236.121H312.005C314.133 236.121 316.165 235.294 317.669 233.822L333.669 218.08C335.173 216.601 336.005 214.601 336.005 212.508V188.895H320.005V209.249H319.997Z" fill="black"/>
<path d="M223.997 303.701L212.685 314.83H192.005V330.572H216.005C218.133 330.572 220.165 329.746 221.669 328.274L237.669 312.532C239.173 311.052 240.005 309.053 240.005 306.959V283.346H224.005V303.701H223.997Z" fill="black"/>
<path d="M295.997 280.088L284.685 291.217H256.005V306.959H288.005C290.133 306.959 292.165 306.133 293.669 304.661L309.669 288.919C311.173 287.439 312.005 285.44 312.005 283.346V251.862H296.005V280.088H295.997Z" fill="black"/>
</svg>
