<svg width="512" height="512" viewBox="0 0 512 512" fill="none" xmlns="http://www.w3.org/2000/svg">
<g clip-path="url(#clip0)">
<path d="M32.205 176.95C32.205 176.95 41.198 191.938 47.948 208.084C49.534 211.879 54.353 213.036 57.395 210.268C65.824 202.597 80.319 187.066 87.626 165.599L32.205 176.95Z" fill="#DCB491"/>
<path d="M492.071 120.951C490.269 118.334 485.992 119.651 486.173 122.824C486.606 130.461 484.744 140.059 475.563 147.905C459.522 161.613 466.715 181.624 466.715 181.624L476.397 192.975C476.399 192.976 525.375 169.325 492.071 120.951Z" fill="#EBC9A0"/>
<path d="M474.896 315.833C468.887 283.783 487.249 260.914 487.249 226.193C487.249 190.137 465.706 166.764 432.163 155.582C378.079 137.554 229.847 155.582 181.772 125.536C172.494 119.737 162.845 104.712 153.394 90.851C147.449 82.132 139.604 74.685 130.061 70.18C107.728 59.635 82.344 64.705 65.716 81.114C42.356 104.166 21.689 130.591 12.521 142.773C9.34803 146.99 8.46203 152.461 10.13 157.468L14.514 170.62C16.745 177.314 23.061 181.798 30.114 181.574C47.301 181.029 79.316 178.159 101.18 165.311C118.273 197.839 129.383 279.056 193.123 301.143L209.148 367.246V438.024L195.229 470.145C193.603 473.897 196.354 478.087 200.443 478.087H226.484C229.496 478.087 231.985 475.737 232.157 472.73L241.7 306.325C268.556 308.984 327.496 311.051 392.642 289.541C402.74 306.345 423.814 333.039 466.216 360.904L455.533 438.025L441.614 470.146C439.988 473.898 442.739 478.088 446.828 478.088H473.329C476.147 478.088 478.539 476.023 478.95 473.235L495.53 360.86C495.977 357.829 495.178 354.761 493.25 352.381C488.106 346.03 477.892 331.812 474.896 315.833Z" fill="#F5A9A2"/>
<path d="M93.968 61.102L115.238 76.857C118.548 79.309 123.074 78.848 126.031 75.979C146.495 56.126 171.31 45.163 184.991 40.206C187.628 39.251 187.16 35.309 184.376 34.963C133.187 28.59 93.968 61.102 93.968 61.102Z" fill="#825A5A"/>
<path d="M446.827 478.087H473.328C476.146 478.087 478.538 476.022 478.95 473.234L481.614 455.176L452.33 445.414L441.613 470.144C439.987 473.897 442.737 478.087 446.827 478.087Z" fill="#6E4848"/>
<path d="M200.443 478.087H226.485C229.497 478.087 231.986 475.737 232.158 472.73L233.204 454.5L205.948 445.414L195.231 470.146C193.603 473.897 196.353 478.087 200.443 478.087Z" fill="#6E4848"/>
<path d="M392.642 289.542C389.198 283.089 386.611 277.622 384.688 273.185C381.41 265.619 372.834 261.953 365.012 264.56C320.248 279.478 274.337 282.559 253.871 283.161C247.624 283.345 242.613 288.287 242.297 294.529L241.699 306.327C268.556 308.984 327.496 311.051 392.642 289.542Z" fill="#F5A9A2"/>
<path d="M139.205 171.108C141.375 151.911 130.024 145.568 123.68 148.239C115.68 151.608 116.001 156.919 101.178 165.312C118.271 197.84 129.381 279.057 193.121 301.144C161.073 278.442 134.822 209.883 139.205 171.108Z" fill="#F5A9A2"/>
<path d="M68.77 177.004C44.3479 168.779 32.008 143.304 29.399 121.351C22.23 130.09 16.339 137.701 12.522 142.774C9.34895 146.991 8.46295 152.462 10.132 157.469L14.515 170.621C16.747 177.315 23.063 181.799 30.115 181.575C39.785 181.267 54.159 180.146 68.77 177.004Z" fill="#F5A9A2"/>
<path d="M73.8119 53.416C74.3569 60.744 76.2899 74.569 83.0749 88.159C84.8799 91.774 89.1919 93.402 92.9149 91.831L112.588 83.525C117.631 81.396 118.931 74.677 114.899 70.975C101.57 58.74 86.402 52.351 78.689 49.665C76.173 48.789 73.6139 50.757 73.8119 53.416Z" fill="#EBC9A0"/>
<path d="M511.096 162.79C514.777 144.959 507.21 125.353 488.606 104.517C485.886 101.471 481.211 101.142 478.112 103.797C475.012 106.455 474.591 111.084 477.187 114.236C477.24 114.303 482.479 120.967 481.358 128.39C480.631 133.201 477.263 137.679 471.346 141.703C463.981 146.711 460.846 153.832 459.686 160.437C452.367 155.633 443.97 151.615 434.534 148.469C410.123 140.332 368.919 139.262 325.296 138.128C271.877 136.74 211.331 135.167 185.747 119.177C178.661 114.748 169.914 101.847 162.196 90.465C156.93 82.697 151.873 75.247 146.773 69.236C167.917 56.161 197.736 44 198.111 43.848C201.143 42.619 203.028 39.566 202.769 36.304C202.51 33.042 200.167 30.325 196.979 29.59C146.651 17.973 108.801 41.321 97.332 49.642C85.485 43.384 76.066 40.967 75.421 40.806C73.044 40.212 70.526 40.816 68.679 42.424C66.83 44.032 65.884 46.442 66.144 48.878C66.304 50.376 67.21 58.295 69.317 67.101C36.796 97.098 2.91298 143.147 1.45098 145.14C0.0129836 147.102 -0.384016 149.639 0.384984 151.947L7.39998 172.99C10.587 182.553 19.666 189.081 29.643 189.081C29.885 189.081 30.128 189.077 30.371 189.069C30.403 189.068 30.438 189.066 30.471 189.065C33.294 194.079 39.19 205.185 43.839 218.199C44.61 220.358 46.326 222.046 48.497 222.78C49.281 223.046 50.093 223.176 50.901 223.176C52.332 223.176 53.751 222.767 54.98 221.97C55.991 221.314 79.066 206.121 91.562 178.233C93.618 177.434 95.637 176.578 97.612 175.662C101.95 182.884 105.683 193.707 109.948 206.091C121.877 240.725 138.101 287.832 186.777 306.797L201.649 368.142V436.468L184.906 475.103C183.902 477.421 184.132 480.089 185.518 482.202C186.905 484.313 189.261 485.586 191.788 485.586H231.85C235.825 485.586 239.11 482.484 239.338 478.516L248.718 314.958C252.663 315.272 256.647 315.54 260.652 315.705C260.758 315.71 260.863 315.712 260.968 315.712C264.967 315.712 268.289 312.556 268.456 308.523C268.627 304.384 265.412 300.89 261.273 300.719C257.346 300.556 253.44 300.293 249.577 299.981L250.022 292.225C250.259 288.089 247.099 284.544 242.963 284.308C238.844 284.069 235.283 287.231 235.046 291.366L226.276 444.285L216.074 440.884C216.449 439.977 216.647 439.005 216.647 438.023V367.246C216.647 366.65 216.576 366.058 216.436 365.479L200.411 299.376C199.809 296.896 197.989 294.892 195.578 294.056C150.759 278.525 135.993 235.654 124.129 201.207C119.639 188.17 115.695 176.742 110.605 168.173C115.826 164.409 120.362 159.982 123.883 154.777C126.204 151.346 125.304 146.683 121.873 144.363C118.442 142.043 113.779 142.942 111.459 146.373C106.239 154.089 87.843 172.232 29.893 174.076C26.218 174.196 22.812 171.797 21.629 168.246L15.853 150.919C23.549 140.703 49.278 107.293 74.549 82.8C75.437 84.673 76.407 86.41 77.468 87.93C78.926 90.019 81.256 91.137 83.623 91.137C85.106 91.137 86.603 90.699 87.911 89.784C91.307 87.413 92.137 82.737 89.765 79.342C86.9 75.239 84.562 67.088 82.987 59.385C91.078 62.885 102.241 68.929 111.941 78.514C117.747 84.25 127.007 84.526 133.024 79.138C133.478 78.731 133.955 78.322 134.445 77.912C139.34 83.486 144.629 91.28 149.78 98.879C159.161 112.717 168.023 125.785 177.795 131.895C206.849 150.053 266.864 151.613 324.904 153.121C367.379 154.225 407.498 155.267 429.789 162.697C471.079 176.462 479.746 204.823 479.746 226.193C479.746 240.648 476.245 253.238 472.859 265.416C468.44 281.308 463.87 297.739 467.522 317.215C471.014 335.842 483.077 351.919 488.336 358.22L475.498 445.231L462.454 440.883C462.697 440.295 462.871 439.682 462.958 439.052L473.642 361.932C474.039 359.065 472.751 356.225 470.331 354.635C404.107 311.117 391.486 270.341 391.299 269.713C390.172 265.745 386.049 263.428 382.069 264.54C378.079 265.653 375.748 269.79 376.861 273.779C377.016 274.333 378.275 278.624 381.825 285.607C369.312 289.244 335.635 298.027 295.011 300.391C290.876 300.631 287.719 304.179 287.959 308.314C288.191 312.301 291.497 315.378 295.439 315.378C295.585 315.378 295.733 315.374 295.881 315.365C343.116 312.616 380.421 301.805 389.651 298.93C400.938 315.959 421.516 339.775 458.138 364.534L448.241 435.981L431.287 475.104C430.283 477.422 430.513 480.09 431.899 482.203C433.285 484.316 435.642 485.587 438.169 485.587H478.231C481.95 485.587 485.108 482.861 485.65 479.182L503.679 356.991C504.013 354.724 503.293 352.429 501.724 350.76C501.566 350.592 485.877 333.721 482.264 314.453C479.254 298.402 482.987 284.979 487.309 269.436C490.965 256.29 494.745 242.696 494.745 226.195C494.745 214.455 492.607 203.672 488.466 194.002C495.628 189.316 507.705 179.215 511.096 162.79ZM224.769 470.587H203.211L210.094 454.703L225.387 459.801L224.769 470.587ZM50.901 240C48.365 233.961 49.109 192.182 46.951 188.01C54.571 187.272 62.824 186.103 71.094 184.291C65.432 192.784 55.711 235.753 50.901 240ZM122.486 67.847C118.864 64.268 115.084 61.118 111.308 58.354C121.563 51.981 141.285 42.212 166.682 41.497C151.572 48.806 133.475 58.604 123.018 67.967C122.966 68.015 122.675 68.033 122.486 67.847ZM449.596 470.587L456.479 454.703L473.278 460.303L471.761 470.588H449.596V470.587ZM496.429 159.641C494.284 170.262 486.257 177.32 481.13 180.854C479.15 178.048 476.952 175.375 474.558 172.831C473.926 169.272 472.779 158.867 479.78 154.106C486.319 149.66 490.97 144.541 493.687 138.817C496.8 146.286 497.721 153.244 496.429 159.641Z" fill="black"/>
<path d="M77.689 102.763H77.609C73.467 102.763 70.149 106.12 70.149 110.263C70.149 114.406 73.547 117.763 77.689 117.763C81.831 117.763 85.189 114.406 85.189 110.263C85.189 106.12 81.831 102.763 77.689 102.763Z" fill="black"/>
</g>
<defs>
<clipPath id="clip0">
<rect width="512" height="512" fill="white"/>
</clipPath>
</defs>
</svg>
