<svg width="498" height="325" viewBox="0 0 498 325" fill="none" xmlns="http://www.w3.org/2000/svg">
<path d="M87.04 76.8L59.733 68.267C39.253 58.88 34.133 40.96 34.133 17.067H71.68C86.187 17.92 100.693 23.894 110.933 34.134L128 51.2L110.933 76.8H87.04Z" fill="#F5A9A2"/>
<path d="M493.546 185.64C499.519 166.013 502.933 145.533 502.933 124.2V119.933C502.933 58.493 453.44 9 392 9H194.88C148.8 9 106.987 35.453 86.507 77.267L56.64 140.414C48.107 159.187 28.48 171.134 8 171.134V213.8L117.227 229.16C123.2 230.013 127.467 235.133 127.467 241.107V316.2H161.6L175.253 246.227C176.96 239.4 182.933 235.987 189.76 236.84C190.613 236.84 191.467 237.693 192.32 237.693C220.48 249.64 250.347 256.466 281.067 256.466C366.4 256.466 400.534 222.333 400.534 222.333L403.094 219.773C404.801 221.48 407.361 222.333 409.067 223.186C421.867 230.013 433.814 239.399 444.907 249.639L451.734 256.466L425.279 303.4C422.719 307.667 424.426 312.787 428.692 315.347C429.545 316.2 431.252 316.2 432.959 316.2H460.266L502.933 256.467C491.84 238.547 487.573 217.214 490.986 195.88C491.839 192.467 492.693 189.053 493.546 185.64Z" fill="#F5A9A2"/>
<path d="M494.08 185.173C500.053 165.546 503.467 145.066 503.467 123.733V119.466C503.467 82.773 485.547 48.639 454.827 28.159C395.947 162.986 221.867 212.479 120.32 229.546C125.44 231.253 128 235.519 128 240.639V315.733H162.133L175.786 245.76C177.493 238.933 183.466 235.52 190.293 236.373C191.146 236.373 192 237.226 192.853 237.226C221.013 249.173 250.88 255.999 281.6 255.999C366.933 255.999 401.067 221.866 401.067 221.866L403.627 219.306C405.334 221.013 407.894 221.866 409.6 222.719C422.4 229.546 434.347 238.932 445.44 249.172L452.267 255.999L425.813 302.933C423.253 307.2 424.96 312.32 429.226 314.88C430.079 315.733 431.786 315.733 433.493 315.733H460.8L503.467 256C492.374 238.08 488.107 216.747 491.52 195.413C492.373 192 493.227 188.586 494.08 185.173Z" fill="#F5A9A2"/>
<path d="M110.934 145.066H93.867V162.133H110.934V145.066Z" fill="#75462E"/>
<path d="M392.533 0H195.413C166.4 0 139.093 9.38701 116.906 27.307C104.959 16.214 88.746 9.387 72.533 8.534H34.133C29.013 8.534 25.6 11.947 25.6 17.067C25.6 37.547 29.013 63.147 56.32 75.947C56.32 75.947 57.173 75.947 57.173 76.8L75.093 82.773L49.493 136.533C41.813 152.746 25.6 162.133 8.533 162.133C3.413 162.133 0 165.546 0 170.666V213.333C0 217.6 3.413 221.013 7.68 221.866L116.907 237.226C118.614 237.226 119.467 238.933 119.467 240.639V315.733C119.467 320.853 122.88 324.266 128 324.266H162.133C166.4 324.266 169.813 321.706 170.666 317.439L184.319 247.466C184.319 245.759 186.879 244.053 188.586 244.906H189.439C218.452 257.706 250.026 264.533 281.599 264.533C358.399 264.533 395.946 238.08 404.479 229.546H405.332C418.132 236.373 429.225 244.906 439.465 254.293L441.172 256L418.132 298.667C413.865 307.2 416.425 317.44 424.959 321.707C427.519 323.414 430.079 324.267 433.492 324.267H460.8C463.36 324.267 465.92 322.56 467.627 320.854L510.294 261.121C512.001 258.561 512.001 254.294 510.294 251.734C498.347 232.961 494.934 209.921 501.761 188.587C508.588 168.107 511.148 146.774 512.001 124.587V119.467C512 53.76 458.24 0 392.533 0ZM42.667 25.6H71.68C83.627 26.453 94.72 30.72 103.253 39.253C95.573 47.786 87.893 57.173 82.773 66.56L63.146 60.587C50.347 53.76 44.373 44.373 42.667 25.6ZM486.4 128C481.28 128 477.867 124.587 477.867 119.467V102.4C477.867 87.893 466.774 76.8 452.267 76.8C437.76 76.8 426.667 87.893 426.667 102.4V110.933H443.734V102.4C443.734 97.28 447.147 93.867 452.267 93.867C457.387 93.867 460.8 97.28 460.8 102.4V119.467C460.8 133.12 471.893 145.067 485.547 145.067C488.107 145.067 490.667 145.067 493.227 144.214C491.52 157.014 488.96 170.667 485.547 183.467C484.694 186.88 483.84 191.147 482.987 194.56C479.574 215.893 482.987 237.227 493.227 256L456.534 307.2H432.64L459.093 260.267C460.8 256.854 460.8 252.587 457.386 250.027L450.559 243.2C439.466 232.107 426.666 222.72 413.012 215.04C395.945 206.507 384.852 189.44 383.145 169.813H366.08C366.933 188.586 375.467 205.653 389.973 218.453C378.88 226.986 344.746 246.613 280.746 246.613C251.733 246.613 221.866 240.64 195.413 228.693C185.173 224.426 173.226 228.693 168.106 238.933C167.253 240.64 167.253 241.493 166.399 243.2L155.306 307.2H136.533V240.64C136.533 230.4 128.853 221.867 118.613 220.16L17.067 205.653V178.346C37.547 175.786 56.32 162.133 64.854 143.359L94.72 80.213C113.493 41.813 151.893 17.066 194.56 17.066H392.533C448.853 17.066 494.933 63.146 494.933 119.466C494.933 124.586 491.52 128 486.4 128Z" fill="black"/>
<path d="M110.934 145.066H93.867V162.133H110.934V145.066Z" fill="black"/>
<path d="M140.8 88.746L161.28 68.266C172.373 57.173 186.88 51.199 202.24 50.346V33.279C182.613 33.279 162.987 41.812 149.333 56.319L122.88 83.626C119.467 87.039 119.467 92.159 122.88 95.573C124.587 97.28 126.293 98.986 128 99.84C140.8 109.227 156.16 113.493 171.52 113.493C191.147 113.493 210.773 106.666 225.28 93.866L213.333 81.919C192.853 98.986 163.84 101.546 140.8 88.746Z" fill="black"/>
</svg>
