<svg width="496" height="513" viewBox="0 0 496 513" fill="none" xmlns="http://www.w3.org/2000/svg">
<path d="M306.569 242.73C309.398 213.472 314.882 169.362 324.536 133.244C326.303 126.638 328.49 121.09 330.978 116.426C317.826 114.87 299.687 117.446 291.451 140.216C284.747 158.748 288.438 198.77 293.952 234.796C298.005 237.342 301.996 239.952 306.569 242.73V242.73Z" fill="#7D3D1A"/>
<path d="M432.92 146.192C412.077 168.028 364.396 226.67 339.381 257.728C346.605 260.2 349.904 267.758 346.149 273.836C345.448 274.972 344.772 276.12 344.105 277.276L471.707 182.048C471.707 182.048 489.962 166.112 489.962 150.176C489.962 134.24 467.146 110.336 432.92 146.192V146.192Z" fill="#7D3D1A"/>
<path d="M419.229 112.328C385.999 141.338 343.812 223.802 328.912 254.236C332.011 255.46 335.171 256.558 338.399 257.412C338.738 257.502 339.058 257.616 339.381 257.728C364.387 226.68 412.07 168.034 432.92 146.192C446.248 132.228 457.836 127.352 467.029 127.514C465.992 121.306 457.369 79.032 419.229 112.328V112.328Z" fill="#7D3D1A"/>
<path d="M343.929 172.088L317.512 248.964C321.168 250.908 324.985 252.686 328.912 254.236C343.812 223.8 385.999 141.338 419.229 112.328C424.141 108.04 428.558 105.018 432.537 102.998L432.92 102.368C432.92 102.368 394.13 22.688 343.929 172.088V172.088Z" fill="#7D3D1A"/>
<path d="M317.162 248.788C317.276 248.85 317.398 248.904 317.512 248.966L343.929 172.09C357.244 132.46 369.757 108.952 380.957 95.796C365.539 91.608 336.087 90.024 324.534 133.246C314.88 169.364 309.398 213.472 306.566 242.732C309.741 244.656 313.192 246.662 317.162 248.788V248.788Z" fill="#7D3D1A"/>
<path d="M291.448 140.216C289.457 145.72 288.39 153.132 288.007 161.76C296.012 154.16 307.421 150.176 319.86 152.772C321.299 146.102 322.85 139.548 324.534 133.244C326.3 126.638 328.488 121.09 330.976 116.426C317.824 114.87 299.684 117.446 291.448 140.216V140.216Z" fill="#C16A44"/>
<path d="M324.534 133.244C322.987 139.03 321.56 145.032 320.22 151.134C324.174 148.458 336.222 142.118 351.354 151.4C361.906 123.982 371.864 106.474 380.955 95.794C365.537 91.608 336.087 90.022 324.534 133.244V133.244Z" fill="#C16A44"/>
<path d="M352.479 148.536C359.354 146.168 373.555 143.382 382.284 156.404C382.499 156.724 382.749 157.02 382.985 157.324C395.136 138.836 407.717 122.374 419.227 112.326C424.139 108.038 428.556 105.016 432.535 102.996L432.918 102.366C432.92 102.368 398.464 31.632 352.479 148.536Z" fill="#C16A44"/>
<path d="M467.029 127.516C465.992 121.308 457.369 79.032 419.229 112.328C407.639 122.446 394.959 139.074 382.728 157.724C388.238 156.956 402.494 156.49 411.969 169.7C420.191 160.124 427.477 151.896 432.92 146.192C446.248 132.228 457.836 127.352 467.029 127.516V127.516Z" fill="#C16A44"/>
<path d="M489.964 150.176C489.964 134.24 467.146 110.336 432.92 146.192C427.568 151.8 420.439 159.844 412.384 169.216V170.096C412.384 170.096 439.9 166.416 450.079 198.19L471.71 182.048C471.71 182.048 489.964 166.112 489.964 150.176Z" fill="#C16A44"/>
<path d="M346.149 273.836C350.071 267.486 346.307 259.504 338.399 257.414C330.955 255.446 323.805 252.342 317.162 248.788C288.356 233.368 286.383 224.078 225.71 207.37C192.602 198.254 158.11 190.332 123.622 192.14C123.718 192.532 123.78 192.93 123.904 193.32C126.481 201.446 127.638 211.824 118.211 214.566C102.119 219.25 80.6603 207.542 80.6603 207.542C80.6603 207.542 88.7061 223.934 77.9777 233.3C67.2493 242.666 45.7925 223.934 45.7925 223.934C44.2461 234.732 34.6769 243.974 26.8511 249.866C21.6255 253.8 13.4423 251.594 11.8868 245.728C11.1216 242.846 10.4962 239.464 10.2327 235.692C9.97156 236.334 9.71727 236.976 9.48588 237.628C1.45619 260.174 5.62338 299.486 29.2749 326.41C57.9344 359.038 104.174 369.344 151.026 373.446C153.404 379.052 156.336 384.478 159.823 389.624C165.248 397.632 172.061 405.226 174.432 414.296C175.782 411.96 179.076 410.318 180.426 407.984C183.983 411.874 185.601 415.072 189.156 418.962C193.958 415.162 196.806 410.85 200.256 406.06C204.247 409.026 209.594 411.928 213.584 414.892C214.061 409.08 215.678 406.06 217.882 400.288C220.925 402.678 226.995 403.7 230.04 406.088C225.49 400.51 226.32 392.89 228.361 386.278C228.361 386.278 229.591 380.516 229.898 372.076C266.651 364.336 299.977 344.252 321.1 316.87C323.794 316.14 326.506 315.384 329.262 314.584C329.262 314.584 328.463 312.524 326.254 309.618C327.239 308.13 328.229 306.644 329.146 305.12C335.258 294.922 339.917 283.924 346.149 273.836V273.836Z" fill="#F5A9A2"/>
<path d="M298.103 292.83C298.103 292.83 292.605 274.422 271.79 267.47C271.79 267.47 261.371 235.642 225.614 240.45C225.932 240.572 242.991 247.224 246.099 264.852C246.099 264.852 266.922 271.99 267.206 290.266C267.206 290.266 290.662 295.61 290.486 323.986C302.667 321.664 315.576 318.566 329.26 314.584C329.258 314.586 323.338 299.08 298.103 292.83V292.83Z" fill="#F5A9A2"/>
<path d="M117.384 404.334C118.733 401.998 122.028 400.356 123.377 398.022C126.935 401.912 128.552 405.11 132.108 409C136.909 405.2 139.757 400.888 143.207 396.098C147.198 399.064 152.545 401.966 156.536 404.93C156.999 399.288 158.543 396.256 160.648 390.806C160.373 390.412 160.089 390.018 159.821 389.622C156.334 384.476 153.402 379.05 151.024 373.444C131.567 371.74 112.22 368.958 94.1882 363.96C96.5296 369.396 99.3886 374.662 102.777 379.662C108.2 387.672 115.013 395.264 117.384 404.334Z" fill="#F5A9A2"/>
<path d="M142.946 481.482C142.946 481.482 127.104 488.092 123.478 501.922C122.493 505.68 127.42 508.468 130.96 506.162C139.028 500.902 151.716 493.232 161.454 490.134C155.887 478.898 142.946 481.482 142.946 481.482Z" fill="#F4DBCE"/>
<path d="M142.946 481.482C137.381 470.246 124.511 475.104 124.511 475.104C124.511 475.104 110.415 480.784 105.714 493.156C104.85 495.428 107.322 497.616 109.966 496.972L128.405 492.472C134.38 485.074 142.946 481.482 142.946 481.482V481.482Z" fill="#F4DBCE"/>
<path d="M124.511 475.104C121.622 466.078 111.281 468.6 111.281 468.6C111.281 468.6 100.885 471.906 94.5066 480.676C92.5525 483.364 95.0312 486.832 98.6509 486.428L110.66 485.086C116.605 478.292 124.511 475.104 124.511 475.104V475.104Z" fill="#F4DBCE"/>
<path d="M223.456 458.83C218.143 455.408 210.077 452.508 199.417 455.11C199.417 455.11 218.86 429.504 217.028 402.468C215.264 406.914 213.992 409.86 213.58 414.892C209.589 411.928 204.242 409.024 200.251 406.06C196.801 410.85 193.953 415.164 189.152 418.962C187.003 416.612 185.56 414.512 183.97 412.362C183.905 425.318 180.964 443.468 170.705 452.208C167.876 454.62 163.862 455.67 159.965 455.088L152.492 453.968C152.492 453.968 123.789 452.384 111.279 468.604C111.279 468.604 121.617 466.082 124.506 475.108C124.506 475.108 137.377 470.25 142.941 481.486C142.941 481.486 155.883 478.9 161.448 490.136C161.448 490.136 169.056 495.274 182.526 476.474C183.928 474.518 186.13 473.054 188.694 472.488C194.169 471.278 203.933 470.052 212.54 473.832C216.363 475.51 220.963 474.986 223.905 472.27L224.7 471.536C228.725 467.826 228.164 461.864 223.456 458.83V458.83Z" fill="#F9BD55"/>
<path d="M94.5067 480.676C96.1951 478.356 98.1653 476.426 100.149 474.832C94.0073 469.928 85.902 471.524 85.902 471.524C85.902 471.524 70.0603 478.134 66.4337 491.962C65.4486 495.722 70.3764 498.508 73.9159 496.202C79.3843 492.638 86.9673 487.992 94.3212 484.388C93.6774 483.278 93.6155 481.902 94.5067 480.676Z" fill="#F4DBCE"/>
<path d="M85.902 471.522C80.3373 460.286 67.4669 465.144 67.4669 465.144C67.4669 465.144 53.3708 470.824 48.6698 483.196C47.8062 485.468 50.2781 487.656 52.9218 487.012L71.3615 482.512C77.3362 475.114 85.902 471.522 85.902 471.522Z" fill="#F4DBCE"/>
<path d="M67.4669 465.144C64.5781 456.118 54.2368 458.64 54.2368 458.64C54.2368 458.64 43.8406 461.946 37.4627 470.716C35.5085 473.404 37.9873 476.872 41.607 476.468L53.616 475.126C59.5609 468.332 67.4669 465.144 67.4669 465.144Z" fill="#F4DBCE"/>
<path d="M111.283 468.6C111.283 468.6 111.427 468.566 111.659 468.524C111.427 468.568 111.283 468.6 111.283 468.6C123.794 452.38 152.497 453.964 152.497 453.964L159.97 455.084C163.459 455.606 167.035 454.808 169.777 452.908C169.163 451.354 168.059 449.928 166.414 448.87C161.101 445.448 153.035 442.548 142.375 445.15C142.375 445.15 161.819 419.544 159.986 392.508C158.222 396.954 156.95 399.9 156.538 404.932C152.547 401.968 147.2 399.064 143.209 396.1C139.759 400.89 136.912 405.204 132.11 409.002C129.961 406.652 128.518 404.552 126.928 402.402C126.864 415.358 123.922 433.508 113.663 442.248C110.834 444.66 106.82 445.71 102.923 445.128L95.4504 444.008C95.4504 444.008 66.7474 442.424 54.2367 458.644C54.2367 458.644 64.5756 456.122 67.4645 465.148C67.4645 465.148 80.3349 460.29 85.8996 471.526C85.8996 471.526 94.0072 469.932 100.147 474.834C105.661 470.398 111.283 468.6 111.283 468.6V468.6Z" fill="#F9BD55"/>
<path d="M132.962 5C90.0486 5 65.9091 42.464 65.9091 42.464C65.9091 42.464 110.33 62.316 102.559 91.636C106.289 91.658 110.234 91.49 114.417 90.992C116.607 90.732 118.538 92.248 118.486 94.178C118.234 103.568 111.927 130.046 56.5232 165.392C7.38283 196.742 7.52028 229.254 11.8868 245.724C13.4423 251.59 21.6278 253.796 26.8511 249.862C34.6792 243.97 44.2461 234.728 45.7925 223.93C45.7925 223.93 67.2493 242.662 77.9777 233.296C88.7061 223.93 80.6603 207.54 80.6603 207.54C80.6603 207.54 102.117 219.248 118.211 214.564C127.638 211.82 126.481 201.444 123.904 193.318C121.757 186.548 123.798 179.288 129.322 174.182C249.747 62.84 174.792 5 132.962 5Z" fill="#F5A9A2"/>
<path d="M65.9091 42.464C65.9091 42.464 76.6375 49.488 76.6375 63.538L68.5918 84.612L55.9069 98.64C49.836 105.354 49.9024 115.156 56.7683 121.258C63.609 127.34 75.3042 128.704 94.0737 106.856C126.257 69.392 65.9091 42.464 65.9091 42.464V42.464Z" fill="#FD605B"/>
<path d="M65.909 42.464L8.39536 64.124C6.29917 64.914 7.05975 67.656 9.33693 67.522L76.6374 63.538C76.6374 49.488 65.909 42.464 65.909 42.464V42.464Z" fill="#F9BD55"/>
<path d="M15.3895 67.162C15.3895 67.162 48.4751 74.074 68.5917 84.61L76.6374 63.536L15.3895 67.162Z" fill="#F9BD55"/>
<path d="M9.19032 72.526C5.62793 72.526 2.51228 70.41 1.66234 67.348C0.766593 64.134 2.64515 60.846 6.12277 59.534L63.641 37.874C65.5287 37.166 67.7006 37.392 69.3454 38.466C69.8769 38.814 82.3648 47.176 82.3648 63.538C82.3648 66.168 80.0303 68.348 77.0246 68.526L9.72411 72.51C9.54542 72.522 9.36901 72.526 9.19032 72.526V72.526ZM64.6765 48.376L30.4616 61.26L70.4199 58.894C69.3294 53.856 66.6376 50.356 64.6765 48.376V48.376Z" fill="black"/>
<path d="M68.5917 89.612C67.5677 89.612 66.5459 89.372 65.6456 88.9C46.5072 78.874 14.377 72.094 14.0539 72.026C11.3025 71.45 9.44231 69.208 9.68056 66.744C9.91882 64.284 12.1777 62.34 15.0001 62.174L76.248 58.55C78.1907 58.448 79.9959 59.164 81.1643 60.48C82.3327 61.798 82.6717 63.538 82.0692 65.118L74.0235 86.192C73.4737 87.632 72.2068 88.776 70.5756 89.302C69.9365 89.508 69.2629 89.612 68.5917 89.612ZM46.663 70.322C52.9126 72.34 59.4005 74.696 65.3317 77.336L68.5024 69.03L46.663 70.322Z" fill="black"/>
<path d="M66.5574 130.132C61.4257 130.132 56.6514 128.29 52.6813 124.76C43.9299 116.976 43.3824 104.414 51.4121 95.54L63.4761 82.198L70.8964 62.758C70.5344 52.064 62.7705 46.666 62.4337 46.438C60.1016 44.854 59.5151 41.968 61.1004 39.792C62.6857 37.616 65.8884 36.838 68.5161 38.01C69.8792 38.62 101.938 53.162 108.195 76.774C111.15 87.914 107.938 99.046 98.6533 109.854C87.4277 122.92 77.3408 129.542 67.8174 130.094C67.3959 130.122 66.9743 130.132 66.5574 130.132ZM81.9776 58.634C82.225 60.178 82.3648 61.814 82.3648 63.536C82.3648 64.074 82.2663 64.606 82.0715 65.116L74.0258 86.19C73.815 86.74 73.4989 87.254 73.0865 87.708L60.4017 101.736C55.939 106.672 56.1337 113.558 60.853 117.756C63.4326 120.048 65.625 120.202 67.0568 120.12C70.3809 119.926 77.7188 117.556 89.4896 103.856C96.7449 95.408 99.2168 87.298 97.045 79.06C94.9167 70.982 88.5869 64.006 81.9776 58.634ZM76.6375 63.538H76.6604H76.6375Z" fill="black"/>
<path d="M20.8099 256.852C19.2406 256.852 17.6576 256.636 16.1089 256.192C11.1468 254.776 7.48129 251.286 6.30833 246.852C1.5959 229.088 1.41263 194.36 53.144 161.358C66.5826 152.784 109.698 123.276 112.612 96.22C109.338 96.52 106.019 96.65 102.52 96.638C100.781 96.628 99.1412 95.93 98.0645 94.736C96.9854 93.544 96.5868 91.99 96.9786 90.512C103.666 65.284 63.7052 47.098 63.2997 46.918C61.916 46.296 60.8759 45.21 60.4269 43.91C59.9778 42.608 60.1542 41.202 60.9194 40.016C61.9709 38.378 87.2238 0 132.962 0C154.023 0 181.763 12.998 194.029 37.84C218.748 87.894 166.707 146.898 133.484 177.616C129.375 181.416 127.817 186.922 129.423 191.986C135.636 211.572 126.199 217.514 120.021 219.312C109.549 222.354 97.6109 219.688 89.068 216.712C89.8034 223.054 88.8389 230.886 82.028 236.834C78.3442 240.05 69.925 244.28 54.9149 236.416C52.75 235.284 50.7225 234.042 48.9356 232.86C44.8829 241.532 37.1465 248.72 30.5921 253.652C27.8041 255.75 24.3471 256.852 20.8099 256.852V256.852ZM114.903 85.962C117.178 85.962 119.384 86.688 121.102 88.03C123.143 89.622 124.275 91.906 124.208 94.294C123.929 104.728 117.097 132.936 59.9022 169.43C13.4858 199.042 13.3896 229.232 17.4674 244.594C17.8317 245.97 19.0024 246.496 19.669 246.686C20.2395 246.848 21.7263 247.118 23.1123 246.074C30.1362 240.786 38.7891 232.544 40.1109 223.31C40.3813 221.414 41.8658 219.82 43.9345 219.2C46.0032 218.574 48.2941 219.042 49.8428 220.394C55.3021 225.142 68.956 234.098 73.9319 229.76C81.7004 222.978 75.4622 209.642 75.3981 209.51C74.4107 207.5 75.0338 205.164 76.9353 203.742C78.839 202.318 81.5744 202.14 83.6981 203.298C89.0451 206.198 105.361 213.036 116.401 209.82C121.812 208.246 119.968 199.64 118.385 194.65C115.718 186.236 118.314 177.076 125.159 170.748C156.446 141.818 205.635 86.596 183.514 41.796C173.202 20.922 150.279 10 132.962 10C102.218 10 81.4896 31.526 74.0029 40.78C85.4575 47.026 110.545 63.41 109.166 86.45C110.676 86.352 112.165 86.216 113.645 86.038C114.064 85.988 114.486 85.962 114.903 85.962Z" fill="black"/>
<path d="M114.055 52.858C110.9 52.858 108.337 50.63 108.328 47.874C108.298 39.414 116.158 32.506 125.849 32.478H125.904C135.574 32.478 143.454 39.33 143.489 47.774C143.5 50.536 140.946 52.782 137.782 52.792C137.775 52.792 137.768 52.792 137.762 52.792C134.607 52.792 132.046 50.566 132.034 47.81C132.023 44.866 129.276 42.478 125.904 42.478C125.897 42.478 125.892 42.478 125.885 42.478C122.509 42.488 119.769 44.896 119.78 47.844C119.789 50.606 117.235 52.852 114.071 52.86C114.067 52.858 114.062 52.858 114.055 52.858V52.858Z" fill="black"/>
<path d="M128.121 512.004C126.142 512.004 124.156 511.506 122.389 510.502C118.669 508.386 116.905 504.582 117.897 500.804C122.092 484.806 139.727 477.282 140.476 476.97C140.857 476.812 141.257 476.69 141.67 476.606C147.755 475.398 160.813 476.242 166.712 488.148C167.337 489.412 167.337 490.846 166.714 492.11C166.091 493.374 164.898 494.358 163.415 494.828C156.485 497.034 146.176 502.48 134.389 510.164C132.513 511.388 130.321 512.004 128.121 512.004ZM144.831 486.266C142.405 487.44 133.358 492.278 129.872 500.646C136.602 496.354 144.971 491.428 152.721 488.028C149.69 485.972 146.213 486.11 144.831 486.266Z" fill="black"/>
<path d="M109.026 502.086C106.541 502.086 104.119 501.204 102.348 499.578C100.009 497.438 99.2167 494.372 100.277 491.582C105.7 477.318 121.446 470.834 122.112 470.566C122.696 470.344 126.834 468.844 131.961 469.088C139.287 469.444 145.058 473.14 148.206 479.498C149.422 481.956 148.204 484.814 145.445 485.982C145.308 486.04 138.05 489.206 133.086 495.354C132.325 496.296 131.219 496.978 129.947 497.288L111.508 501.788C110.687 501.988 109.853 502.086 109.026 502.086V502.086ZM126.786 479.696C126.793 479.696 117.869 483.446 113.02 491.036L124.983 488.118C128.185 484.556 131.819 481.87 134.767 480.03C133.592 479.314 132.385 479.124 131.326 479.072C128.967 478.97 126.804 479.688 126.786 479.696V479.696Z" fill="black"/>
<path d="M98.0713 491.462C94.6738 491.462 91.5353 489.974 89.6727 487.416C87.5582 484.514 87.5582 480.904 89.6704 477.998C97.0129 467.906 108.825 464.062 109.324 463.902C109.464 463.86 109.601 463.82 109.744 463.786C110.39 463.626 113.837 462.876 117.904 463.558C123.945 464.58 128.252 468.2 130.03 473.76C130.786 476.118 129.473 478.606 126.932 479.638C126.758 479.71 120.121 482.512 115.217 488.122C114.286 489.182 112.91 489.876 111.391 490.046L99.3794 491.388C98.9372 491.438 98.502 491.462 98.0713 491.462V491.462ZM113.017 473.378C111.794 473.826 105.84 476.17 101.212 481.102L107.663 480.382C110.614 477.392 113.808 475.116 116.442 473.51C115.51 473.166 114.369 473.122 113.017 473.378V473.378Z" fill="black"/>
<path d="M189.152 423.96C189 423.96 188.845 423.954 188.691 423.944C187.115 423.832 185.662 423.156 184.675 422.078C182.707 419.924 181.307 418.01 179.956 416.156C179.94 416.134 179.924 416.114 179.908 416.092C179.743 416.266 179.612 416.42 179.539 416.548C178.448 418.426 176.151 419.508 173.731 419.256C171.335 419 169.381 417.462 168.843 415.406C167.248 409.3 163.216 403.756 158.95 397.886C157.569 395.986 156.19 394.088 154.891 392.166C144.786 377.248 138.987 360.138 138.119 342.688C137.981 339.928 140.435 337.596 143.594 337.476C146.829 337.438 149.429 339.498 149.564 342.256C150.35 358.07 155.601 373.57 164.751 387.078C165.99 388.91 167.308 390.718 168.623 392.532C171.383 396.328 174.201 400.204 176.451 404.38C177.358 403.618 178.545 403.126 179.834 403.01C181.786 402.822 183.683 403.534 184.9 404.864C186.868 407.018 188.267 408.932 189.619 410.786C189.66 410.84 189.699 410.896 189.74 410.95C191.349 409.074 192.803 407.036 194.375 404.836L195.401 403.398C196.288 402.17 197.74 401.338 199.381 401.116C201.032 400.9 202.698 401.31 203.962 402.248C205.616 403.476 207.561 404.718 209.635 406.022C210.13 404.57 210.695 403.146 211.309 401.604C211.664 400.708 212.045 399.754 212.443 398.708C213.055 397.108 214.546 395.886 216.411 395.454C217.994 395.09 219.653 395.332 221 396.096C220.973 392.778 221.559 389.138 222.757 385.196C223.11 383.396 226.09 367.166 222.388 350.374C221.79 347.664 223.825 345.04 226.929 344.518C230.024 344.008 233.039 345.772 233.637 348.482C237.969 368.13 234.15 386.428 233.983 387.194C233.955 387.322 233.923 387.45 233.884 387.576C231.715 394.61 231.99 399.862 234.7 403.186C236.393 405.264 236.024 408.122 233.845 409.818C231.662 411.514 228.37 411.506 226.2 409.802C225.385 409.16 223.424 408.426 221.694 407.778C221.493 407.702 221.289 407.626 221.082 407.55C220.139 410.074 219.541 412.174 219.289 415.246C219.137 417.124 217.784 418.77 215.793 419.5C213.809 420.226 211.511 419.92 209.866 418.698C208.047 417.346 205.871 415.98 203.566 414.53C202.959 414.15 202.347 413.764 201.736 413.376C199.31 416.63 196.696 419.738 192.996 422.664C191.94 423.502 190.567 423.96 189.152 423.96V423.96Z" fill="black"/>
<path d="M164.203 495.778C160.765 495.778 158.614 494.536 157.952 494.088C157.184 493.57 156.582 492.892 156.197 492.118C152.568 484.782 144.561 486.286 144.224 486.358C141.53 486.886 138.786 485.68 137.688 483.468C135.851 479.758 133.324 479.172 131.324 479.074C128.967 478.972 126.804 479.69 126.786 479.698C125.272 480.27 123.542 480.244 122.048 479.622C120.557 478.998 119.443 477.844 118.999 476.454C118.248 474.11 116.983 473.592 115.728 473.38C114.28 473.134 112.839 473.418 112.825 473.42C110.516 473.984 108.046 473.23 106.642 471.534C105.237 469.834 105.192 467.552 106.534 465.814C120.715 447.424 151.539 448.908 152.859 448.98C153.06 448.992 153.264 449.012 153.466 449.042L160.939 450.162C163.044 450.47 165.214 449.908 166.712 448.632C175.122 441.468 178.185 425.19 178.247 412.344C178.258 410.132 179.933 408.188 182.366 407.566C184.794 406.942 187.408 407.792 188.787 409.652L189.624 410.792C189.663 410.846 189.701 410.9 189.74 410.952C191.351 409.076 192.806 407.04 194.377 404.838L195.404 403.4C196.29 402.172 197.743 401.34 199.383 401.118C201.035 400.902 202.7 401.312 203.965 402.25C205.619 403.478 207.566 404.718 209.637 406.024C210.134 404.566 210.702 403.136 211.319 401.586L211.619 400.83C212.515 398.576 215.124 397.208 217.813 397.514C220.521 397.84 222.585 399.79 222.748 402.172C224.029 421.048 215.765 438.968 209.843 449.178C217.147 449.65 222.876 452.242 226.86 454.806C230.407 457.092 232.665 460.604 233.057 464.446C233.451 468.314 231.923 472.152 228.867 474.972L228.07 475.706C223.44 479.98 216.169 481.02 209.972 478.296C202.916 475.196 194.496 476.364 190.107 477.336C189.019 477.574 188.031 478.226 187.385 479.128C180.212 489.14 173.402 494.526 166.561 495.59C165.718 495.722 164.93 495.778 164.203 495.778V495.778ZM146.158 476.2C152.144 476.204 160.236 478.218 165.205 485.56C167.072 484.956 171.358 482.64 177.674 473.822C179.908 470.71 183.324 468.518 187.296 467.642C193.225 466.33 204.735 464.808 215.117 469.364C216.762 470.084 218.622 469.874 219.747 468.834L220.544 468.1C221.642 467.086 221.706 465.932 221.644 465.334C221.584 464.752 221.3 463.654 220.056 462.854C214.382 459.202 207.958 458.224 200.959 459.924C198.652 460.488 196.196 459.738 194.787 458.05C193.381 456.36 193.321 454.088 194.645 452.344C194.787 452.158 205.935 437.224 209.976 418.776C209.94 418.75 209.905 418.724 209.869 418.698C208.05 417.346 205.873 415.98 203.571 414.532C202.961 414.15 202.35 413.764 201.738 413.376C199.314 416.632 196.698 419.74 192.998 422.666C191.887 423.544 190.407 424.006 188.939 423.958C187.596 434.494 184.004 447.868 174.71 455.784C170.597 459.29 164.73 460.874 159.001 460.012L151.881 458.946C149.679 458.886 134.211 458.654 123.088 465.286C124.939 466.274 126.499 467.608 127.732 469.25C129.008 469.096 130.447 469.012 131.963 469.088C137.908 469.376 142.831 471.868 146.158 476.2V476.2Z" fill="black"/>
<path d="M71.075 502.044C69.0957 502.044 67.1094 501.544 65.3408 500.54C61.6227 498.424 59.8587 494.618 60.8506 490.842C65.0453 474.846 82.6809 467.322 83.43 467.01C83.8171 466.85 84.2226 466.726 84.6396 466.644C88.7243 465.832 97.4184 465.876 104.012 471.14C105.196 472.086 105.872 473.42 105.872 474.82C105.872 476.22 105.205 477.556 104.025 478.506C102.364 479.844 100.928 481.288 99.7482 482.806C100.605 485.044 99.5421 487.554 97.1206 488.744C89.785 492.34 82.3143 496.96 77.3384 500.204C75.4667 501.43 73.2743 502.044 71.075 502.044V502.044ZM87.7346 476.332C85.2673 477.532 76.2915 482.364 72.8253 490.69C77.091 487.972 82.5388 484.674 88.1653 481.728C88.328 480.428 88.8297 479.154 89.6682 478.002L89.6705 477.996C90.0691 477.452 90.486 476.912 90.9259 476.382C89.5765 476.21 88.415 476.262 87.7346 476.332V476.332Z" fill="black"/>
<path d="M51.9802 492.124C49.4923 492.124 47.073 491.242 45.2999 489.616C42.9608 487.474 42.1705 484.408 43.2357 481.616C48.6538 467.356 64.3993 460.872 65.066 460.604C72.4863 457.8 85.4117 457.928 91.1596 469.538C92.3761 471.996 91.1573 474.856 88.399 476.022C88.2318 476.094 80.9971 479.26 76.0395 485.394C75.2789 486.334 74.1724 487.018 72.9009 487.326L54.4613 491.826C53.6434 492.028 52.8095 492.124 51.9802 492.124V492.124ZM69.6914 469.752C69.7028 469.752 60.814 473.502 55.9779 481.074L67.9388 478.154C71.13 474.61 74.7474 471.934 77.6844 470.094C74.8001 468.316 71.3637 469.156 69.6914 469.752Z" fill="black"/>
<path d="M41.0249 481.502C37.6275 481.502 34.4889 480.014 32.6264 477.454C30.5119 474.552 30.5141 470.944 32.6287 468.036C39.9665 457.948 51.7785 454.102 52.2779 453.944C52.4154 453.9 52.5551 453.86 52.6972 453.824C59.0705 452.276 69.7325 453.642 72.981 463.798C73.737 466.156 72.4266 468.642 69.8837 469.674C69.7279 469.74 63.0796 472.544 58.1679 478.16C57.2378 479.222 55.8609 479.914 54.3421 480.084L42.333 481.426C41.8955 481.476 41.4602 481.502 41.0249 481.502V481.502ZM56.019 463.402C54.9056 463.804 48.8576 466.146 44.1681 471.142L50.617 470.422C53.5654 467.436 56.7544 465.162 59.3867 463.558C58.1748 463.092 56.8598 463.224 56.019 463.402Z" fill="black"/>
<path d="M132.11 414C131.959 414 131.803 413.994 131.652 413.984C130.076 413.872 128.623 413.198 127.636 412.12C125.663 409.964 124.263 408.046 122.912 406.192C122.896 406.172 122.882 406.15 122.866 406.132C122.701 406.306 122.568 406.462 122.497 406.59C121.407 408.468 119.086 409.548 116.69 409.298C114.293 409.042 112.339 407.504 111.801 405.448C110.206 399.344 106.177 393.804 101.913 387.936C100.53 386.034 99.1504 384.132 97.8468 382.208C94.3555 377.052 91.32 371.504 88.8275 365.72C88.0554 363.928 88.5228 361.908 90.0325 360.518C91.5422 359.128 93.8286 358.614 95.9202 359.194C111.528 363.522 129.741 366.556 151.594 368.47C153.771 368.66 155.635 369.918 156.396 371.708C158.682 377.096 161.493 382.268 164.751 387.08L165.541 388.208C166.421 389.47 166.616 391.004 166.075 392.406C165.734 393.288 165.406 394.11 165.097 394.888C163.528 398.828 162.581 401.204 162.247 405.29C162.094 407.17 160.742 408.816 158.751 409.544C156.763 410.272 154.469 409.964 152.822 408.74C151.008 407.39 148.831 406.024 146.529 404.576C145.92 404.194 145.308 403.808 144.694 403.42C142.27 406.674 139.656 409.78 135.956 412.708C134.9 413.542 133.526 414 132.11 414V414ZM123.377 393.022C125.109 393.022 126.761 393.708 127.853 394.902C129.819 397.054 131.219 398.968 132.57 400.82C132.612 400.876 132.651 400.932 132.694 400.988C134.3 399.112 135.752 397.082 137.324 394.884L138.362 393.436C139.246 392.206 140.701 391.374 142.341 391.154C143.979 390.932 145.654 391.35 146.923 392.288C148.575 393.514 150.52 394.756 152.591 396.058C153.088 394.596 153.661 393.16 154.277 391.602C154.307 391.53 154.334 391.456 154.366 391.382C151.567 387.166 149.081 382.71 146.948 378.096C131.006 376.588 116.923 374.468 104.298 371.664C105.373 373.528 106.511 375.346 107.705 377.114C108.949 378.948 110.266 380.76 111.583 382.572C114.341 386.368 117.159 390.242 119.407 394.414C120.314 393.652 121.501 393.16 122.79 393.044C122.985 393.03 123.182 393.022 123.377 393.022Z" fill="black"/>
<path d="M100.149 479.832C98.7655 479.832 97.3772 479.394 96.2821 478.522C92.4998 475.5 87.32 476.376 87.1001 476.412C84.4495 476.888 81.7164 475.676 80.6443 473.508C78.807 469.798 76.2778 469.21 74.2801 469.114C71.893 468.992 69.7601 469.728 69.7418 469.736C68.2252 470.308 66.4978 470.282 65.0041 469.66C63.5127 469.036 62.3993 467.882 61.9549 466.492C60.7384 462.696 57.231 463.102 55.7832 463.458C53.4716 464.012 51.0043 463.266 49.5977 461.568C48.1933 459.87 48.1498 457.588 49.4923 455.85C63.6731 437.462 94.509 438.938 95.8171 439.018C96.021 439.03 96.2249 439.05 96.4265 439.08L103.899 440.2C106.023 440.514 108.174 439.948 109.67 438.668C118.078 431.506 121.143 415.226 121.207 402.38C121.219 400.168 122.894 398.222 125.329 397.602C127.764 396.978 130.373 397.828 131.748 399.692L132.573 400.816C132.616 400.874 132.657 400.934 132.701 400.99C134.307 399.116 135.759 397.084 137.331 394.886L138.369 393.438C139.253 392.208 140.705 391.376 142.348 391.156C143.986 390.934 145.661 391.352 146.93 392.29C148.582 393.518 150.527 394.758 152.6 396.062C153.095 394.606 153.663 393.18 154.277 391.63L154.579 390.87C155.475 388.616 158.084 387.242 160.774 387.554C163.482 387.88 165.546 389.83 165.709 392.212C166.989 411.086 158.726 429.008 152.804 439.218C160.107 439.69 165.837 442.282 169.821 444.846C172.311 446.452 174.169 448.676 175.198 451.278C175.99 453.282 175.246 455.504 173.342 456.822C169.319 459.612 164.087 460.774 159.008 460.01L151.885 458.944C149.26 458.866 127.498 458.558 117.088 470.138C116.474 471.7 114.99 472.962 113.026 473.38C111.982 473.762 107.954 475.358 104.039 478.508C102.935 479.39 101.54 479.832 100.149 479.832V479.832ZM89.1345 466.264C92.3028 466.284 96.1722 466.856 99.8468 468.568C102.969 466.542 105.803 465.254 107.553 464.552C116.085 454.574 129.698 450.914 139.782 449.608C138.99 449.258 138.289 448.744 137.741 448.09C136.334 446.4 136.275 444.128 137.599 442.386C137.741 442.198 148.889 427.264 152.93 408.816C152.893 408.788 152.859 408.764 152.82 408.736C151.005 407.386 148.829 406.02 146.527 404.572C145.917 404.19 145.306 403.804 144.692 403.416C142.268 406.67 139.654 409.776 135.954 412.704C134.845 413.58 133.407 414.02 131.892 413.996C130.547 424.534 126.958 437.908 117.663 445.824C113.549 449.328 107.686 450.91 101.959 450.052L94.8366 448.986C92.6419 448.92 77.169 448.694 66.0419 455.326C67.7807 456.254 69.3729 457.536 70.6673 459.252C76.8528 458.526 84.3258 459.97 89.1345 466.264V466.264Z" fill="black"/>
<path d="M189.152 423.96C189 423.96 188.845 423.954 188.691 423.944C187.115 423.832 185.663 423.156 184.675 422.078C182.707 419.924 181.308 418.01 179.956 416.156C179.94 416.134 179.924 416.114 179.908 416.09C179.745 416.264 179.615 416.418 179.544 416.544C178.455 418.426 176.13 419.524 173.736 419.256C171.34 419.002 169.383 417.462 168.845 415.406C167.25 409.3 163.218 403.756 158.953 397.886C157.571 395.986 156.192 394.088 154.893 392.166C151.881 387.718 149.214 383 146.948 378.1C105.858 374.25 55.8542 364.884 24.7297 329.45C-0.202474 301.07 -4.54836 260.192 4.01512 236.14C4.26941 235.428 4.54661 234.726 4.83069 234.024C5.7356 231.778 8.3129 230.386 11.0254 230.734C13.7241 231.062 15.7813 233.006 15.9463 235.38C16.1685 238.53 16.6771 241.63 17.4651 244.592C17.8294 245.968 19.0001 246.494 19.6667 246.684C20.2372 246.846 21.724 247.116 23.11 246.072C30.134 240.784 38.7868 232.542 40.1086 223.308C40.379 221.412 41.8635 219.818 43.9322 219.198C46.0009 218.572 48.2918 219.04 49.8405 220.392C55.2998 225.14 68.9537 234.096 73.9296 229.758C81.7485 222.93 75.4531 209.628 75.3889 209.494C74.4176 207.484 75.0498 205.152 76.949 203.738C78.8528 202.32 81.579 202.14 83.6958 203.296C89.0428 206.196 105.359 213.028 116.396 209.816C121.81 208.242 119.966 199.636 118.383 194.648C118.259 194.26 118.167 193.866 118.085 193.472L118.021 193.18C117.672 191.754 118.053 190.268 119.061 189.108C120.071 187.948 121.611 187.23 123.278 187.144C158.744 185.284 194.299 193.474 227.431 202.598C272.75 215.076 286.085 223.574 301.524 233.414C306.988 236.896 312.637 240.496 320.154 244.522C327.217 248.3 333.73 250.952 340.057 252.626C345.478 254.06 349.833 257.52 352.004 262.118C354.174 266.718 353.878 271.852 351.189 276.206C348.041 281.306 345.216 286.822 342.481 292.158C339.897 297.202 337.223 302.422 334.215 307.44C333.787 308.152 333.342 308.858 332.891 309.562C334.085 311.486 334.609 312.784 334.683 312.978C335.173 314.24 335.068 315.618 334.389 316.81C333.709 318.004 332.515 318.91 331.068 319.33C328.923 319.954 326.806 320.546 324.703 321.124C303.606 347.694 271.348 367.5 235.417 376.002C234.95 382.638 234.033 386.98 233.99 387.194C233.96 387.324 233.928 387.452 233.889 387.58C231.717 394.61 231.99 399.862 234.7 403.186C236.393 405.262 236.026 408.12 233.848 409.816C231.669 411.512 228.375 411.504 226.205 409.804C225.39 409.162 223.431 408.428 221.703 407.782C221.5 407.706 221.293 407.628 221.085 407.55C220.141 410.076 219.543 412.174 219.291 415.246C219.14 417.124 217.786 418.77 215.795 419.5C213.811 420.228 211.513 419.92 209.869 418.698C208.05 417.346 205.873 415.98 203.571 414.532C202.961 414.15 202.35 413.764 201.738 413.376C199.314 416.632 196.698 419.74 192.998 422.666C191.94 423.502 190.567 423.96 189.152 423.96V423.96ZM180.423 402.982C182.155 402.982 183.807 403.668 184.9 404.862C186.868 407.016 188.267 408.93 189.619 410.784C189.66 410.838 189.699 410.894 189.74 410.948C191.349 409.072 192.803 407.034 194.375 404.834L195.401 403.396C196.288 402.168 197.74 401.336 199.381 401.114C201.032 400.898 202.698 401.308 203.962 402.246C205.617 403.474 207.564 404.714 209.635 406.02C210.13 404.566 210.698 403.142 211.312 401.596C211.667 400.7 212.047 399.748 212.446 398.702C213.057 397.102 214.551 395.88 216.418 395.45C217.99 395.088 219.655 395.328 220.998 396.09C220.973 392.774 221.559 389.134 222.76 385.192C222.952 384.216 223.91 379.05 224.166 371.916C224.249 369.666 226.04 367.742 228.549 367.212C264.06 359.734 296.062 340.366 316.344 314.074C317.07 313.128 318.149 312.43 319.395 312.092C319.934 311.946 320.474 311.8 321.017 311.65C320.277 310.2 320.362 308.512 321.29 307.11L321.448 306.872C322.341 305.524 323.235 304.178 324.064 302.798C326.91 298.054 329.51 292.98 332.023 288.074C334.841 282.572 337.755 276.884 341.106 271.458V271.456C342.158 269.756 342.27 267.742 341.413 265.926C340.559 264.114 338.854 262.754 336.738 262.194C329.459 260.268 322.078 257.276 314.165 253.046C306.255 248.81 300.415 245.088 294.768 241.492C280.143 232.17 267.515 224.118 223.985 212.132C194.05 203.89 162.165 196.48 130.724 196.9C133.979 212.594 125.647 217.668 120.018 219.304C109.547 222.348 97.6086 219.68 89.068 216.706C89.8034 223.048 88.8389 230.88 82.028 236.828C71.9846 245.592 57.5769 238.642 48.9195 232.888C44.8623 241.542 37.135 248.72 30.5921 253.646C26.5647 256.676 21.1489 257.624 16.1089 256.188C14.5259 255.734 13.0734 255.072 11.7928 254.234C9.83636 275.828 16.4892 303.632 33.8155 323.358C63.1599 356.764 112.172 365.01 151.592 368.462C153.768 368.652 155.633 369.91 156.394 371.7C158.68 377.088 161.491 382.26 164.749 387.072C165.988 388.904 167.305 390.712 168.62 392.526C171.381 396.322 174.199 400.198 176.448 404.374C177.356 403.612 178.542 403.12 179.832 403.004C180.031 402.99 180.229 402.982 180.423 402.982V402.982ZM323.835 316.194H323.858H323.835Z" fill="black"/>
<path d="M235.314 334.65C210.918 334.65 188.939 330.95 169.521 323.544C125.242 306.656 110.637 276.1 107.214 267.138C104.571 260.212 103.391 253.12 103.714 246.064C103.842 243.302 106.557 241.158 109.666 241.268C112.825 241.378 115.285 243.704 115.159 246.464C114.894 252.308 115.876 258.202 118.083 263.978C121.125 271.95 134.16 299.146 174.107 314.382C212.285 328.944 261.669 328.03 320.971 311.678C317.494 307.374 310.3 301.05 296.539 297.64C294.585 297.156 293.073 295.806 292.562 294.092C292.516 293.952 287.428 278.05 269.742 272.14C268.058 271.578 266.775 270.354 266.28 268.842C266.237 268.714 261.35 254.474 247.685 248.078C239.609 244.298 229.843 243.934 218.65 246.984C215.623 247.818 212.418 246.34 211.474 243.704C210.531 241.068 212.212 238.262 215.232 237.44C229.522 233.538 242.294 234.17 253.204 239.316C267.439 246.024 274.104 258.492 276.367 263.72C292.995 270.25 300.161 283.136 302.601 288.806C327.984 296.144 334.422 312.294 334.692 313.004C335.171 314.262 335.058 315.634 334.38 316.822C333.7 318.008 332.511 318.91 331.07 319.33C295.973 329.542 263.976 334.65 235.314 334.65V334.65Z" fill="black"/>
<path d="M306.566 247.73C305.416 247.73 304.271 247.428 303.295 246.834C300.229 244.972 297.423 243.184 294.681 241.44C293.313 240.568 291.961 239.71 290.605 238.856C289.325 238.052 288.481 236.822 288.273 235.46C280.915 187.404 280.147 154.852 285.987 138.712C295.842 111.466 318.88 109.958 331.743 111.472C333.546 111.686 335.127 112.636 335.998 114.028C336.873 115.422 336.932 117.096 336.165 118.538C333.741 123.08 331.704 128.41 330.108 134.382C320.628 169.85 315.175 213.108 312.27 243.152C312.099 244.934 310.852 246.498 308.999 247.258C308.227 247.574 307.395 247.73 306.566 247.73V247.73ZM299.304 232.008C300.012 232.458 300.72 232.906 301.434 233.362C301.537 233.426 301.638 233.492 301.744 233.56C304.855 203.91 310.213 164.83 318.958 132.108C320 128.21 321.221 124.538 322.609 121.124C310.225 121.868 301.597 128.772 296.912 141.724C291.739 156.02 292.569 187.212 299.304 232.008V232.008Z" fill="black"/>
<path d="M344.105 282.278C342.859 282.278 341.61 281.924 340.57 281.214C338.424 279.744 337.762 277.158 338.989 275.03C339.681 273.832 340.38 272.642 341.106 271.466C342.117 269.832 342.265 267.962 341.525 266.2C340.79 264.444 339.246 263.054 337.292 262.384C335.654 261.826 334.403 260.64 333.897 259.17C333.39 257.702 333.686 256.11 334.699 254.856C360.817 222.422 407.742 164.764 428.521 142.994C449.137 121.396 465.506 120.654 475.597 123.854C488.651 127.978 495.693 140.496 495.693 150.178C495.693 167.982 476.576 184.876 475.762 185.586C475.657 185.678 475.547 185.768 475.432 185.852L347.828 281.08C346.756 281.876 345.432 282.278 344.105 282.278V282.278ZM347.464 256.388C349.59 258.132 351.25 260.306 352.281 262.76C352.483 263.238 352.655 263.72 352.806 264.21L467.794 178.396C469.368 176.968 484.236 163.156 484.236 150.176C484.236 143.806 479.545 135.734 471.694 133.254C462.301 130.284 450.088 136.016 437.318 149.394C417.664 169.982 373.979 223.52 347.464 256.388V256.388ZM432.92 146.194H432.943H432.92Z" fill="black"/>
<path d="M339.379 262.728C338.673 262.728 337.961 262.614 337.274 262.376C337.052 262.3 336.896 262.24 336.731 262.196C333.56 261.358 330.227 260.242 326.552 258.79C323.714 257.668 322.424 254.772 323.647 252.27C339.988 218.892 381.619 138.09 415.181 108.792C428.654 97.03 440.734 92.588 451.11 95.586C467.075 100.21 471.671 120.64 472.699 126.792C472.942 128.248 472.441 129.722 471.327 130.824C470.212 131.924 468.679 132.552 466.915 132.514C466.81 132.514 466.7 132.512 466.592 132.512C460.509 132.512 450.583 135.5 437.321 149.394C416.78 170.912 370.078 228.306 344.066 260.602C342.967 261.966 341.2 262.728 339.379 262.728V262.728ZM336.465 251.564C336.701 251.64 336.932 251.714 337.166 251.788C363.67 218.912 408.359 164.112 428.519 142.992C439.27 131.728 449.905 125.068 460.219 123.116C458.198 115.824 454.109 106.992 447.502 105.078C441.685 103.386 433.296 107.118 423.28 115.862C392.004 143.168 351.372 221.508 336.465 251.564ZM419.229 112.328H419.252H419.229Z" fill="black"/>
<path d="M328.912 259.236C328.105 259.236 327.301 259.088 326.554 258.792C322.531 257.206 318.488 255.334 314.534 253.236C312.307 252.052 311.276 249.706 312.025 247.528L338.44 170.66C359.404 108.276 380.957 77.366 404.32 76.176C425.623 75.092 437.685 99.378 438.189 100.412C438.865 101.796 438.787 103.374 437.98 104.706L437.596 105.336C437.094 106.162 436.338 106.85 435.412 107.318C431.689 109.208 427.607 112.082 423.277 115.86C390.224 144.716 346.724 230.57 334.176 256.198C333.571 257.434 332.421 258.406 330.987 258.894C330.321 259.124 329.617 259.236 328.912 259.236V259.236ZM324.298 246.624C324.873 246.902 325.45 247.172 326.027 247.438C343.752 211.658 383.145 136.762 415.181 108.794C418.785 105.646 422.31 103.004 425.706 100.906C421.809 94.762 413.942 85.694 404.968 86.162C395.009 86.684 374.554 98.722 349.427 173.498C349.425 173.508 349.422 173.518 349.418 173.528L324.298 246.624ZM343.931 172.088H343.954H343.931Z" fill="black"/>
<path d="M317.512 253.964C316.477 253.964 315.446 253.718 314.536 253.238L314.227 253.082C314.206 253.07 314.186 253.06 314.167 253.048C310.532 251.102 307.077 249.128 303.299 246.836C301.62 245.816 300.688 244.09 300.862 242.31C303.799 211.934 309.322 168.162 318.958 132.106C324.087 112.916 333.269 99.898 346.245 93.41C359.399 86.836 373.31 88.48 382.659 91.02C384.432 91.5 385.83 92.704 386.405 94.244C386.98 95.784 386.664 97.474 385.557 98.776C373.473 112.97 361.317 138.108 349.429 173.492L322.999 250.4C322.488 251.882 321.224 253.076 319.567 253.63C318.901 253.856 318.204 253.964 317.512 253.964V253.964ZM312.559 240.254C313.109 240.578 313.657 240.896 314.2 241.21L338.447 170.652C349.161 138.764 360.256 114.736 371.486 99.076C365.443 98.402 358.46 98.836 351.938 102.092C341.835 107.142 334.493 118.008 330.115 134.384C320.935 168.724 315.528 210.372 312.559 240.254V240.254Z" fill="black"/>
<path d="M288.005 166.762C287.272 166.762 286.53 166.638 285.824 166.386C283.604 165.588 282.191 163.664 282.285 161.57C282.715 151.894 283.925 144.418 285.989 138.712C295.845 111.466 318.882 109.958 331.746 111.472C333.549 111.686 335.129 112.636 336 114.028C336.875 115.422 336.935 117.096 336.167 118.538C333.743 123.08 331.707 128.41 330.11 134.382C328.539 140.256 326.985 146.756 325.487 153.7C325.196 155.044 324.289 156.226 322.972 156.97C321.654 157.714 320.051 157.956 318.525 157.638C308.937 155.636 299.354 158.372 292.223 165.148C291.116 166.198 289.574 166.762 288.005 166.762V166.762ZM322.607 121.124C310.223 121.868 301.595 128.772 296.91 141.724C296.005 144.224 295.281 147.278 294.743 150.864C301.079 147.884 308.106 146.576 315.283 147.084C316.484 141.776 317.716 136.754 318.958 132.108C320 128.208 321.221 124.538 322.607 121.124V121.124ZM291.451 140.216H291.474H291.451Z" fill="black"/>
<path d="M351.354 156.4C350.19 156.4 349.038 156.09 348.059 155.492C336.68 148.512 327.934 152.24 323.73 155.086C321.842 156.362 319.256 156.484 317.224 155.396C315.192 154.308 314.145 152.236 314.596 150.192C316.062 143.518 317.489 137.602 318.956 132.106C324.085 112.916 333.267 99.898 346.243 93.41C359.397 86.836 373.308 88.48 382.657 91.02C384.43 91.5 385.828 92.704 386.403 94.244C386.978 95.784 386.662 97.474 385.555 98.776C375.981 110.022 366.302 128.262 356.783 152.99C356.206 154.486 354.857 155.658 353.138 156.148C352.557 156.318 351.954 156.4 351.354 156.4ZM335.37 141.516C339.26 141.516 343.581 142.21 348.192 144.05C355.817 125.112 363.622 110.04 371.489 99.076C365.438 98.402 358.46 98.836 351.938 102.092C341.835 107.142 334.493 118.008 330.115 134.384C329.434 136.926 328.763 139.564 328.092 142.334C330.293 141.834 332.733 141.516 335.37 141.516V141.516Z" fill="black"/>
<path d="M382.987 162.326C381.094 162.326 379.317 161.51 378.251 160.136L378.091 159.932C377.83 159.606 377.573 159.276 377.344 158.93C372.435 151.606 364.772 149.678 354.584 153.186C352.506 153.9 350.139 153.496 348.522 152.15C346.907 150.8 346.336 148.756 347.063 146.912C365.534 99.948 384.441 76.808 404.86 76.172C425.793 75.592 437.696 99.392 438.191 100.408C438.867 101.794 438.789 103.372 437.983 104.704L437.598 105.334C437.098 106.16 436.34 106.848 435.414 107.316C431.692 109.206 427.609 112.08 423.279 115.858C413.259 124.606 401.374 139.394 387.953 159.81C386.971 161.304 385.177 162.254 383.204 162.318C383.131 162.324 383.058 162.326 382.987 162.326V162.326ZM363.594 141.534C370.84 141.534 377.307 143.85 382.382 148.32C394.56 130.454 405.577 117.178 415.179 108.794C418.782 105.646 422.306 103.004 425.701 100.908C421.848 94.838 414.212 85.888 405.248 86.17C397.312 86.43 381.399 94.202 361.381 141.606C362.125 141.556 362.865 141.534 363.594 141.534Z" fill="black"/>
<path d="M411.969 174.7C411.889 174.7 411.811 174.698 411.731 174.696C409.846 174.626 408.118 173.75 407.115 172.354C399.761 162.098 389.239 161.874 383.633 162.66C381.447 162.976 379.269 162.148 378.018 160.564C376.762 158.98 376.664 156.908 377.759 155.238C391.789 133.85 404.377 118.224 415.181 108.792C428.654 97.03 440.734 92.588 451.11 95.586C467.075 100.21 471.671 120.64 472.699 126.792C472.942 128.248 472.441 129.722 471.327 130.824C470.211 131.924 468.679 132.552 466.915 132.514C466.809 132.514 466.699 132.512 466.592 132.512C460.509 132.512 450.583 135.5 437.321 149.394C432.308 154.644 425.323 162.486 416.553 172.696C415.468 173.96 413.768 174.7 411.969 174.7V174.7ZM392.671 152.78C398.572 153.556 405.69 155.808 411.896 161.476C418.707 153.634 424.283 147.434 428.519 142.994C439.27 131.73 449.905 125.07 460.218 123.118C458.198 115.826 454.109 106.994 447.502 105.08C441.685 103.388 433.295 107.12 423.28 115.864C414.448 123.574 404.171 135.97 392.671 152.78Z" fill="black"/>
<path d="M450.079 203.192C449.522 203.192 448.961 203.122 448.411 202.976C446.542 202.48 445.089 201.184 444.562 199.54C440.83 187.892 434.301 180.248 425.154 176.826C418.691 174.408 413.305 175.036 413.25 175.04C411.598 175.262 409.919 174.842 408.652 173.892C407.383 172.942 406.654 171.558 406.654 170.1V169.22C406.654 168.138 407.057 167.086 407.8 166.22C416.494 156.104 423.465 148.29 428.517 142.996C449.133 121.398 465.501 120.656 475.593 123.856C488.647 127.98 495.689 140.498 495.689 150.18C495.689 167.984 476.571 184.878 475.758 185.588C475.652 185.68 475.542 185.77 475.428 185.854L453.797 201.996C452.75 202.778 451.426 203.192 450.079 203.192V203.192ZM422.553 165.76C431.871 167.498 444.915 173.012 452.759 189.614L467.792 178.396C469.368 176.968 484.236 163.156 484.236 150.176C484.236 143.806 479.545 135.734 471.694 133.254C462.301 130.284 450.088 136.016 437.318 149.394C433.511 153.382 428.56 158.872 422.553 165.76V165.76ZM471.71 182.048H471.733H471.71Z" fill="black"/>
<path d="M243.678 298.576C241.052 298.576 238.684 296.99 238.093 294.658C237.405 291.962 239.353 289.292 242.441 288.694C264.738 284.368 283.994 284.14 299.666 288.02C302.708 288.774 304.479 291.538 303.615 294.194C302.752 296.85 299.586 298.39 296.543 297.642C282.718 294.218 265.352 294.496 244.926 298.456C244.505 298.538 244.09 298.576 243.678 298.576V298.576Z" fill="black"/>
</svg>
