<svg width="749" height="513" viewBox="0 0 749 513" fill="none" xmlns="http://www.w3.org/2000/svg">
<path d="M288.018 242.73C290.676 213.472 295.828 169.362 304.898 133.244C306.558 126.638 308.613 121.09 310.95 116.426C298.594 114.87 281.552 117.446 273.815 140.216C267.517 158.748 270.984 198.77 276.165 234.796C279.972 237.342 283.722 239.952 288.018 242.73V242.73Z" fill="#7D3D1A"/>
<path d="M406.723 146.192C387.142 168.028 342.346 226.67 318.845 257.728C325.631 260.2 328.731 267.758 325.203 273.836C324.544 274.972 323.909 276.12 323.283 277.276L443.164 182.048C443.164 182.048 460.314 166.112 460.314 150.176C460.314 134.24 438.879 110.336 406.723 146.192V146.192Z" fill="#7D3D1A"/>
<path d="M393.861 112.328C362.642 141.338 323.008 223.802 309.009 254.236C311.921 255.46 314.889 256.558 317.922 257.412C318.24 257.502 318.542 257.616 318.845 257.728C342.337 226.68 387.135 168.034 406.723 146.192C419.245 132.228 430.132 127.352 438.769 127.514C437.794 121.306 429.693 79.032 393.861 112.328V112.328Z" fill="#7D3D1A"/>
<path d="M323.117 172.088L298.299 248.964C301.734 250.908 305.32 252.686 309.009 254.236C323.008 223.8 362.642 141.338 393.861 112.328C398.476 108.04 402.625 105.018 406.364 102.998L406.723 102.368C406.723 102.368 370.281 22.688 323.117 172.088V172.088Z" fill="#7D3D1A"/>
<path d="M297.97 248.788C298.077 248.85 298.192 248.904 298.299 248.966L323.117 172.09C335.627 132.46 347.382 108.952 357.905 95.796C343.42 91.608 315.75 90.024 304.896 133.246C295.826 169.364 290.676 213.472 288.016 242.732C290.999 244.656 294.24 246.662 297.97 248.788V248.788Z" fill="#7D3D1A"/>
<path d="M273.812 140.216C271.942 145.72 270.939 153.132 270.58 161.76C278.1 154.16 288.818 150.176 300.505 152.772C301.857 146.102 303.314 139.548 304.896 133.244C306.555 126.638 308.611 121.09 310.948 116.426C298.592 114.87 281.55 117.446 273.812 140.216V140.216Z" fill="#C16A44"/>
<path d="M304.896 133.244C303.443 139.03 302.102 145.032 300.843 151.134C304.558 148.458 315.877 142.118 330.093 151.4C340.006 123.982 349.363 106.474 357.903 95.794C343.418 91.608 315.75 90.022 304.896 133.244V133.244Z" fill="#C16A44"/>
<path d="M331.15 148.536C337.609 146.168 350.951 143.382 359.151 156.404C359.353 156.724 359.588 157.02 359.81 157.324C371.226 138.836 383.046 122.374 393.859 112.326C398.474 108.038 402.623 105.016 406.362 102.996L406.721 102.366C406.723 102.368 374.353 31.632 331.15 148.536Z" fill="#C16A44"/>
<path d="M438.769 127.516C437.794 121.308 429.693 79.032 393.861 112.328C382.973 122.446 371.06 139.074 359.569 157.724C364.745 156.956 378.139 156.49 387.041 169.7C394.765 160.124 401.609 151.896 406.723 146.192C419.245 132.228 430.132 127.352 438.769 127.516V127.516Z" fill="#C16A44"/>
<path d="M460.316 150.176C460.316 134.24 438.879 110.336 406.723 146.192C401.696 151.8 394.998 159.844 387.43 169.216V170.096C387.43 170.096 413.281 166.416 422.844 198.19L443.166 182.048C443.166 182.048 460.316 166.112 460.316 150.176Z" fill="#C16A44"/>
<path d="M325.203 273.836C328.888 267.486 325.351 259.504 317.922 257.414C310.929 255.446 304.212 252.342 297.97 248.788C270.907 233.368 269.054 224.078 212.052 207.37C180.947 198.254 148.542 190.332 116.141 192.14C116.232 192.532 116.29 192.93 116.406 193.32C118.828 201.446 119.914 211.824 111.058 214.566C95.94 219.25 75.7794 207.542 75.7794 207.542C75.7794 207.542 83.3383 223.934 73.2591 233.3C63.1799 242.666 43.0215 223.934 43.0215 223.934C41.5687 234.732 32.5785 243.974 25.2263 249.866C20.3169 253.8 12.6289 251.594 11.1674 245.728C10.4486 242.846 9.861 239.464 9.61349 235.692C9.36813 236.334 9.12922 236.976 8.91184 237.628C1.36803 260.174 5.28306 299.486 27.5034 326.41C54.4287 359.038 97.8706 369.344 141.887 373.446C144.121 379.052 146.876 384.478 150.152 389.624C155.249 397.632 161.65 405.226 163.877 414.296C165.145 411.96 168.24 410.318 169.508 407.984C172.85 411.874 174.37 415.072 177.71 418.962C182.221 415.162 184.897 410.85 188.138 406.06C191.887 409.026 196.911 411.928 200.66 414.892C201.108 409.08 202.627 406.06 204.698 400.288C207.556 402.678 213.26 403.7 216.12 406.088C211.846 400.51 212.625 392.89 214.542 386.278C214.542 386.278 215.698 380.516 215.987 372.076C250.516 364.336 281.825 344.252 301.67 316.87C304.201 316.14 306.749 315.384 309.338 314.584C309.338 314.584 308.587 312.524 306.512 309.618C307.438 308.13 308.368 306.644 309.229 305.12C314.971 294.922 319.349 283.924 325.203 273.836V273.836Z" fill="#F5A9A2"/>
<path d="M280.065 292.83C280.065 292.83 274.899 274.422 255.344 267.47C255.344 267.47 245.555 235.642 211.962 240.45C212.261 240.572 228.287 247.224 231.208 264.852C231.208 264.852 250.77 271.99 251.037 290.266C251.037 290.266 273.074 295.61 272.908 323.986C284.352 321.664 296.48 318.566 309.336 314.584C309.334 314.586 303.772 299.08 280.065 292.83V292.83Z" fill="#F5A9A2"/>
<path d="M110.281 404.334C111.549 401.998 114.644 400.356 115.911 398.022C119.254 401.912 120.773 405.11 124.114 409C128.625 405.2 131.3 400.888 134.542 396.098C138.291 399.064 143.314 401.966 147.064 404.93C147.498 399.288 148.949 396.256 150.927 390.806C150.669 390.412 150.402 390.018 150.15 389.622C146.874 384.476 144.119 379.05 141.885 373.444C123.606 371.74 105.43 368.958 88.4888 363.96C90.6884 369.396 93.3745 374.662 96.5577 379.662C101.652 387.672 108.053 395.264 110.281 404.334Z" fill="#F5A9A2"/>
<path d="M134.296 481.482C134.296 481.482 119.413 488.092 116.006 501.922C115.08 505.68 119.71 508.468 123.035 506.162C130.616 500.902 142.535 493.232 151.685 490.134C146.454 478.898 134.296 481.482 134.296 481.482Z" fill="#F4DBCE"/>
<path d="M134.296 481.482C129.068 470.246 116.977 475.104 116.977 475.104C116.977 475.104 103.734 480.784 99.317 493.156C98.5056 495.428 100.828 497.616 103.312 496.972L120.636 492.472C126.249 485.074 134.296 481.482 134.296 481.482V481.482Z" fill="#F4DBCE"/>
<path d="M116.977 475.104C114.263 466.078 104.547 468.6 104.547 468.6C104.547 468.6 94.7799 471.906 88.7879 480.676C86.952 483.364 89.2808 486.832 92.6815 486.428L103.964 485.086C109.549 478.292 116.977 475.104 116.977 475.104V475.104Z" fill="#F4DBCE"/>
<path d="M209.934 458.83C204.943 455.408 197.365 452.508 187.35 455.11C187.35 455.11 205.617 429.504 203.895 402.468C202.238 406.914 201.043 409.86 200.656 414.892C196.907 411.928 191.883 409.024 188.134 406.06C184.892 410.85 182.217 415.164 177.706 418.962C175.687 416.612 174.331 414.512 172.837 412.362C172.777 425.318 170.014 443.468 160.376 452.208C157.718 454.62 153.947 455.67 150.286 455.088L143.265 453.968C143.265 453.968 116.299 452.384 104.545 468.604C104.545 468.604 114.258 466.082 116.972 475.108C116.972 475.108 129.064 470.25 134.292 481.486C134.292 481.486 146.45 478.9 151.678 490.136C151.678 490.136 158.826 495.274 171.481 476.474C172.799 474.518 174.867 473.054 177.275 472.488C182.419 471.278 191.593 470.052 199.679 473.832C203.271 475.51 207.593 474.986 210.356 472.27L211.103 471.536C214.885 467.826 214.357 461.864 209.934 458.83V458.83Z" fill="#F9BD55"/>
<path d="M88.788 480.676C90.3742 478.356 92.2252 476.426 94.0891 474.832C88.3188 469.928 80.7039 471.524 80.7039 471.524C80.7039 471.524 65.8208 478.134 62.4137 491.962C61.4882 495.722 66.1178 498.508 69.4431 496.202C74.5807 492.638 81.7048 487.992 88.6137 484.388C88.0089 483.278 87.9507 481.902 88.788 480.676Z" fill="#F4DBCE"/>
<path d="M80.704 471.522C75.476 460.286 63.3844 465.144 63.3844 465.144C63.3844 465.144 50.1413 470.824 45.7248 483.196C44.9134 485.468 47.2357 487.656 49.7195 487.012L67.0433 482.512C72.6565 475.114 80.704 471.522 80.704 471.522Z" fill="#F4DBCE"/>
<path d="M63.3844 465.144C60.6703 456.118 50.9549 458.64 50.9549 458.64C50.9549 458.64 41.1877 461.946 35.1957 470.716C33.3598 473.404 35.6886 476.872 39.0892 476.468L50.3716 475.126C55.9568 468.332 63.3844 465.144 63.3844 465.144Z" fill="#F4DBCE"/>
<path d="M104.549 468.6C104.549 468.6 104.685 468.566 104.902 468.524C104.685 468.568 104.549 468.6 104.549 468.6C116.303 452.38 143.269 453.964 143.269 453.964L150.29 455.084C153.568 455.606 156.928 454.808 159.504 452.908C158.927 451.354 157.89 449.928 156.344 448.87C151.353 445.448 143.775 442.548 133.76 445.15C133.76 445.15 152.027 419.544 150.305 392.508C148.648 396.954 147.453 399.9 147.066 404.932C143.316 401.968 138.293 399.064 134.544 396.1C131.302 400.89 128.627 405.204 124.116 409.002C122.097 406.652 120.741 404.552 119.247 402.402C119.187 415.358 116.423 433.508 106.785 442.248C104.127 444.66 100.356 445.71 96.6954 445.128L89.6746 444.008C89.6746 444.008 62.7085 442.424 50.9548 458.644C50.9548 458.644 60.6681 456.122 63.3822 465.148C63.3822 465.148 75.4738 460.29 80.7017 471.526C80.7017 471.526 88.3187 469.932 94.0868 474.834C99.2674 470.398 104.549 468.6 104.549 468.6V468.6Z" fill="#F9BD55"/>
<path d="M124.917 5C84.5996 5 61.9209 42.464 61.9209 42.464C61.9209 42.464 103.654 62.316 96.3534 91.636C99.8573 91.658 103.564 91.49 107.494 90.992C109.551 90.732 111.366 92.248 111.316 94.178C111.079 103.568 105.154 130.046 53.1029 165.392C6.93611 196.742 7.06524 229.254 11.1675 245.724C12.6289 251.59 20.3191 253.796 25.2263 249.862C32.5807 243.97 41.5687 234.728 43.0215 223.93C43.0215 223.93 63.18 242.662 73.2592 233.296C83.3384 223.93 75.7795 207.54 75.7795 207.54C75.7795 207.54 95.9379 219.248 111.058 214.564C119.915 211.82 118.828 201.444 116.406 193.318C114.39 186.548 116.307 179.288 121.497 174.182C234.634 62.84 164.215 5 124.917 5Z" fill="#F5A9A2"/>
<path d="M61.9209 42.464C61.9209 42.464 72.0001 49.488 72.0001 63.538L64.4412 84.612L52.5239 98.64C46.8203 105.354 46.8827 115.156 53.3332 121.258C59.76 127.34 70.7474 128.704 88.3812 106.856C118.617 69.392 61.9209 42.464 61.9209 42.464V42.464Z" fill="#FD605B"/>
<path d="M61.9208 42.464L7.88735 64.124C5.91799 64.914 6.63256 67.656 8.77194 67.522L72 63.538C72 49.488 61.9208 42.464 61.9208 42.464V42.464Z" fill="#F9BD55"/>
<path d="M14.4583 67.162C14.4583 67.162 45.5418 74.074 64.4411 84.61L72 63.536L14.4583 67.162Z" fill="#F9BD55"/>
<path d="M8.63417 72.526C5.28734 72.526 2.36022 70.41 1.56171 67.348C0.720166 64.134 2.48505 60.846 5.75224 59.534L59.79 37.874C61.5635 37.166 63.6039 37.392 65.1492 38.466C65.6486 38.814 77.3808 47.176 77.3808 63.538C77.3808 66.168 75.1876 68.348 72.3637 68.526L9.13566 72.51C8.96778 72.522 8.80205 72.526 8.63417 72.526V72.526ZM60.7628 48.376L28.6183 61.26L66.1587 58.894C65.1342 53.856 62.6052 50.356 60.7628 48.376V48.376Z" fill="black"/>
<path d="M64.4411 89.612C63.4791 89.612 62.5191 89.372 61.6733 88.9C43.693 78.874 13.507 72.094 13.2035 72.026C10.6186 71.45 8.87093 69.208 9.09477 66.744C9.31861 64.284 11.4408 62.34 14.0924 62.174L71.6341 58.55C73.4593 58.448 75.1553 59.164 76.253 60.48C77.3506 61.798 77.6692 63.538 77.1031 65.118L69.5442 86.192C69.0277 87.632 67.8375 88.776 66.305 89.302C65.7045 89.508 65.0718 89.612 64.4411 89.612ZM43.8393 70.322C49.7108 72.34 55.8061 74.696 61.3784 77.336L64.3572 69.03L43.8393 70.322Z" fill="black"/>
<path d="M62.53 130.132C57.7088 130.132 53.2234 128.29 49.4935 124.76C41.2717 116.976 40.7573 104.414 48.3011 95.54L59.6351 82.198L66.6064 62.758C66.2663 52.064 58.9722 46.666 58.6558 46.438C56.4648 44.854 55.9138 41.968 57.4032 39.792C58.8926 37.616 61.9015 36.838 64.3702 38.01C65.6508 38.62 95.7701 53.162 101.648 76.774C104.424 87.914 101.407 99.046 92.6837 109.854C82.1374 122.92 72.6608 129.542 63.7137 130.094C63.3177 130.122 62.9217 130.132 62.53 130.132ZM77.0171 58.634C77.2495 60.178 77.3808 61.814 77.3808 63.536C77.3808 64.074 77.2883 64.606 77.1053 65.116L69.5465 86.19C69.3485 86.74 69.0514 87.254 68.664 87.708L56.7467 101.736C52.5541 106.672 52.737 113.558 57.1707 117.756C59.5942 120.048 61.654 120.202 62.9992 120.12C66.1222 119.926 73.016 117.556 84.0745 103.856C90.8908 95.408 93.2131 87.298 91.1728 79.06C89.1733 70.982 83.2265 64.006 77.0171 58.634ZM72.0001 63.538H72.0216H72.0001Z" fill="black"/>
<path d="M19.5507 256.852C18.0764 256.852 16.5891 256.636 15.1342 256.192C10.4723 254.776 7.02862 251.286 5.92664 246.852C1.49936 229.088 1.32718 194.36 49.9282 161.358C62.5536 152.784 103.06 123.276 105.798 96.22C102.722 96.52 99.6033 96.65 96.3167 96.638C94.6831 96.628 93.1421 95.93 92.1305 94.736C91.1168 93.544 90.7423 91.99 91.1103 90.512C97.3929 65.284 59.8503 47.098 59.4694 46.918C58.1694 46.296 57.1922 45.21 56.7704 43.91C56.3485 42.608 56.5143 41.202 57.2331 40.016C58.2211 38.378 81.9458 0 124.916 0C144.703 0 170.765 12.998 182.288 37.84C205.511 87.894 156.62 146.898 125.407 177.616C121.546 181.416 120.082 186.922 121.591 191.986C127.428 211.572 118.563 217.514 112.758 219.312C102.92 222.354 91.7044 219.688 83.6784 216.712C84.3693 223.054 83.4632 230.886 77.0644 236.834C73.6035 240.05 65.6938 244.28 51.592 236.416C49.558 235.284 47.6533 234.042 45.9745 232.86C42.167 241.532 34.8987 248.72 28.741 253.652C26.1217 255.75 22.8738 256.852 19.5507 256.852V256.852ZM107.95 85.962C110.087 85.962 112.16 86.688 113.774 88.03C115.692 89.622 116.755 91.906 116.693 94.294C116.43 104.728 110.012 132.936 56.2775 169.43C12.6698 199.042 12.5794 229.232 16.4105 244.594C16.7527 245.97 17.8525 246.496 18.4789 246.686C19.0148 246.848 20.4116 247.118 21.7138 246.074C28.3127 240.786 36.4419 232.544 37.6838 223.31C37.9378 221.414 39.3325 219.82 41.276 219.2C43.2195 218.574 45.3718 219.042 46.8268 220.394C51.9557 225.142 64.7834 234.098 69.4582 229.76C76.7567 222.978 70.8959 209.642 70.8357 209.51C69.908 207.5 70.4935 205.164 72.2799 203.742C74.0684 202.318 76.6383 202.14 78.6335 203.298C83.6569 206.198 98.9856 213.036 109.358 209.82C114.441 208.246 112.709 199.64 111.221 194.65C108.716 186.236 111.155 177.076 117.586 170.748C146.98 141.818 193.192 86.596 172.409 41.796C162.722 20.922 141.186 10 124.916 10C96.0326 10 76.5586 31.526 69.5249 40.78C80.2864 47.026 103.856 63.41 102.561 86.45C103.979 86.352 105.378 86.216 106.768 86.038C107.162 85.988 107.558 85.962 107.95 85.962Z" fill="black"/>
<path d="M107.153 52.858C104.19 52.858 101.781 50.63 101.773 47.874C101.745 39.414 109.129 32.506 118.233 32.478H118.285C127.37 32.478 134.774 39.33 134.806 47.774C134.817 50.536 132.417 52.782 129.445 52.792C129.438 52.792 129.432 52.792 129.425 52.792C126.462 52.792 124.055 50.566 124.045 47.81C124.034 44.866 121.453 42.478 118.285 42.478C118.279 42.478 118.274 42.478 118.268 42.478C115.095 42.488 112.521 44.896 112.532 47.844C112.541 50.606 110.141 52.852 107.169 52.86C107.164 52.858 107.16 52.858 107.153 52.858V52.858Z" fill="black"/>
<path d="M120.369 512.004C118.509 512.004 116.643 511.506 114.984 510.502C111.488 508.386 109.831 504.582 110.763 500.804C114.704 484.806 131.272 477.282 131.976 476.97C132.333 476.812 132.71 476.69 133.097 476.606C138.814 475.398 151.082 476.242 156.624 488.148C157.212 489.412 157.212 490.846 156.626 492.11C156.041 493.374 154.919 494.358 153.527 494.828C147.016 497.034 137.331 502.48 126.257 510.164C124.495 511.388 122.435 512.004 120.369 512.004ZM136.067 486.266C133.788 487.44 125.289 492.278 122.013 500.646C128.336 496.354 136.199 491.428 143.48 488.028C140.632 485.972 137.365 486.11 136.067 486.266Z" fill="black"/>
<path d="M102.429 502.086C100.094 502.086 97.8189 501.204 96.1552 499.578C93.9577 497.438 93.213 494.372 94.2095 491.582C99.304 477.318 114.097 470.834 114.723 470.566C115.272 470.344 119.159 468.844 123.976 469.088C130.859 469.444 136.281 473.14 139.238 479.498C140.381 481.956 139.236 484.814 136.644 485.982C136.515 486.04 129.697 489.206 125.033 495.354C124.318 496.296 123.278 496.978 122.084 497.288L104.76 501.788C103.99 501.988 103.206 502.086 102.429 502.086V502.086ZM119.114 479.696C119.12 479.696 110.737 483.446 106.181 491.036L117.42 488.118C120.429 484.556 123.842 481.87 126.612 480.03C125.508 479.314 124.374 479.124 123.38 479.072C121.163 478.97 119.131 479.688 119.114 479.696V479.696Z" fill="black"/>
<path d="M92.1369 491.462C88.945 491.462 85.9964 489.974 84.2466 487.416C82.26 484.514 82.26 480.904 84.2444 477.998C91.1425 467.906 102.24 464.062 102.709 463.902C102.84 463.86 102.969 463.82 103.103 463.786C103.71 463.626 106.949 462.876 110.769 463.558C116.445 464.58 120.491 468.2 122.161 473.76C122.872 476.118 121.638 478.606 119.252 479.638C119.088 479.71 112.853 482.512 108.245 488.122C107.371 489.182 106.077 489.876 104.65 490.046L93.3658 491.388C92.9504 491.438 92.5415 491.462 92.1369 491.462V491.462ZM106.178 473.378C105.029 473.826 99.4353 476.17 95.0877 481.102L101.149 480.382C103.921 477.392 106.921 475.116 109.396 473.51C108.52 473.166 107.448 473.122 106.178 473.378V473.378Z" fill="black"/>
<path d="M177.706 423.96C177.564 423.96 177.417 423.954 177.273 423.944C175.792 423.832 174.428 423.156 173.5 422.078C171.651 419.924 170.336 418.01 169.067 416.156C169.051 416.134 169.036 416.114 169.021 416.092C168.866 416.266 168.744 416.42 168.675 416.548C167.65 418.426 165.492 419.508 163.219 419.256C160.967 419 159.131 417.462 158.626 415.406C157.128 409.3 153.34 403.756 149.332 397.886C148.034 395.986 146.739 394.088 145.518 392.166C136.024 377.248 130.577 360.138 129.761 342.688C129.632 339.928 131.937 337.596 134.905 337.476C137.944 337.438 140.387 339.498 140.514 342.256C141.252 358.07 146.185 373.57 154.782 387.078C155.946 388.91 157.184 390.718 158.419 392.532C161.013 396.328 163.66 400.204 165.773 404.38C166.626 403.618 167.741 403.126 168.952 403.01C170.786 402.822 172.568 403.534 173.711 404.864C175.56 407.018 176.875 408.932 178.145 410.786C178.184 410.84 178.22 410.896 178.259 410.95C179.77 409.074 181.137 407.036 182.613 404.836L183.577 403.398C184.41 402.17 185.775 401.338 187.316 401.116C188.868 400.9 190.432 401.31 191.62 402.248C193.174 403.476 195.002 404.718 196.95 406.022C197.414 404.57 197.946 403.146 198.523 401.604C198.856 400.708 199.214 399.754 199.588 398.708C200.163 397.108 201.564 395.886 203.316 395.454C204.803 395.09 206.362 395.332 207.627 396.096C207.601 392.778 208.152 389.138 209.278 385.196C209.609 383.396 212.409 367.166 208.931 350.374C208.37 347.664 210.281 345.04 213.197 344.518C216.105 344.008 218.937 345.772 219.499 348.482C223.569 368.13 219.981 386.428 219.824 387.194C219.798 387.322 219.768 387.45 219.732 387.576C217.693 394.61 217.952 399.862 220.498 403.186C222.088 405.264 221.742 408.122 219.695 409.818C217.644 411.514 214.551 411.506 212.513 409.802C211.747 409.16 209.904 408.426 208.279 407.778C208.09 407.702 207.898 407.626 207.705 407.55C206.818 410.074 206.256 412.174 206.019 415.246C205.877 417.124 204.605 418.77 202.735 419.5C200.871 420.226 198.712 419.92 197.167 418.698C195.458 417.346 193.413 415.98 191.248 414.53C190.678 414.15 190.103 413.764 189.528 413.376C187.249 416.63 184.793 419.738 181.317 422.664C180.325 423.502 179.036 423.96 177.706 423.96V423.96Z" fill="black"/>
<path d="M154.267 495.778C151.037 495.778 149.016 494.536 148.394 494.088C147.673 493.57 147.107 492.892 146.745 492.118C143.336 484.782 135.814 486.286 135.497 486.358C132.966 486.886 130.388 485.68 129.357 483.468C127.631 479.758 125.257 479.172 123.378 479.074C121.163 478.972 119.131 479.69 119.114 479.698C117.691 480.27 116.066 480.244 114.663 479.622C113.262 478.998 112.216 477.844 111.798 476.454C111.092 474.11 109.904 473.592 108.725 473.38C107.364 473.134 106.011 473.418 105.998 473.42C103.828 473.984 101.508 473.23 100.189 471.534C98.8694 469.834 98.8263 467.552 100.088 465.814C113.41 447.424 142.369 448.908 143.609 448.98C143.799 448.992 143.99 449.012 144.18 449.042L151.2 450.162C153.178 450.47 155.217 449.908 156.624 448.632C164.525 441.468 167.403 425.19 167.461 412.344C167.472 410.132 169.045 408.188 171.331 407.566C173.612 406.942 176.068 407.792 177.364 409.652L178.149 410.792C178.186 410.846 178.222 410.9 178.259 410.952C179.772 409.076 181.139 407.04 182.615 404.838L183.58 403.4C184.412 402.172 185.777 401.34 187.318 401.118C188.87 400.902 190.435 401.312 191.623 402.25C193.177 403.478 195.006 404.718 196.952 406.024C197.419 404.566 197.953 403.136 198.532 401.586L198.814 400.83C199.655 398.576 202.107 397.208 204.633 397.514C207.177 397.84 209.117 399.79 209.269 402.172C210.473 421.048 202.709 438.968 197.145 449.178C204.007 449.65 209.39 452.242 213.133 454.806C216.465 457.092 218.587 460.604 218.955 464.446C219.325 468.314 217.889 472.152 215.018 474.972L214.269 475.706C209.919 479.98 203.088 481.02 197.266 478.296C190.637 475.196 182.727 476.364 178.603 477.336C177.581 477.574 176.653 478.226 176.047 479.128C169.308 489.14 162.909 494.526 156.482 495.59C155.69 495.722 154.95 495.778 154.267 495.778V495.778ZM137.314 476.2C142.938 476.204 150.54 478.218 155.208 485.56C156.962 484.956 160.989 482.64 166.923 473.822C169.021 470.71 172.23 468.518 175.963 467.642C181.533 466.33 192.346 464.808 202.1 469.364C203.645 470.084 205.393 469.874 206.45 468.834L207.199 468.1C208.23 467.086 208.29 465.932 208.232 465.334C208.176 464.752 207.909 463.654 206.74 462.854C201.409 459.202 195.374 458.224 188.799 459.924C186.632 460.488 184.324 459.738 183.001 458.05C181.679 456.36 181.623 454.088 182.867 452.344C183.001 452.158 193.474 437.224 197.27 418.776C197.236 418.75 197.204 418.724 197.169 418.698C195.46 417.346 193.416 415.98 191.253 414.532C190.68 414.15 190.105 413.764 189.531 413.376C187.254 416.632 184.796 419.74 181.32 422.666C180.276 423.544 178.885 424.006 177.506 423.958C176.245 434.494 172.87 447.868 164.138 455.784C160.274 459.29 154.762 460.874 149.38 460.012L142.69 458.946C140.622 458.886 126.09 458.654 115.64 465.286C117.379 466.274 118.845 467.608 120.003 469.25C121.202 469.096 122.553 469.012 123.978 469.088C129.563 469.376 134.189 471.868 137.314 476.2V476.2Z" fill="black"/>
<path d="M66.7742 502.044C64.9146 502.044 63.0486 501.544 61.387 500.54C57.8938 498.424 56.2366 494.618 57.1685 490.842C61.1094 474.846 77.6777 467.322 78.3816 467.01C78.7453 466.85 79.1262 466.726 79.518 466.644C83.3555 465.832 91.5235 465.876 97.7178 471.14C98.8305 472.086 99.4655 473.42 99.4655 474.82C99.4655 476.22 98.8392 477.556 97.7307 478.506C96.1703 479.844 94.8208 481.288 93.7124 482.806C94.5173 485.044 93.5187 487.554 91.2437 488.744C84.352 492.34 77.3334 496.96 72.6586 500.204C70.9002 501.43 68.8404 502.044 66.7742 502.044V502.044ZM82.4257 476.332C80.1077 477.532 71.675 482.364 68.4186 490.69C72.4261 487.972 77.5443 484.674 82.8304 481.728C82.9832 480.428 83.4545 479.154 84.2423 478.002L84.2444 477.996C84.6189 477.452 85.0106 476.912 85.4239 476.382C84.1562 476.21 83.065 476.262 82.4257 476.332V476.332Z" fill="black"/>
<path d="M48.8348 492.124C46.4974 492.124 44.2246 491.242 42.5587 489.616C40.3612 487.474 39.6187 484.408 40.6195 481.616C45.7097 467.356 60.5024 460.872 61.1288 460.604C68.1001 457.8 80.2433 457.928 85.6434 469.538C86.7863 471.996 85.6413 474.856 83.0499 476.022C82.8928 476.094 76.0958 479.26 71.4383 485.394C70.7237 486.334 69.6841 487.018 68.4896 487.326L51.1658 491.826C50.3974 492.028 49.614 492.124 48.8348 492.124V492.124ZM65.4743 469.752C65.485 469.752 57.1341 473.502 52.5906 481.074L63.8277 478.154C66.8259 474.61 70.2244 471.934 72.9836 470.094C70.2739 468.316 67.0454 469.156 65.4743 469.752Z" fill="black"/>
<path d="M38.5425 481.502C35.3506 481.502 32.4019 480.014 30.6521 477.454C28.6656 474.552 28.6677 470.944 30.6543 468.036C37.5481 457.948 48.6453 454.102 49.1145 453.944C49.2437 453.9 49.375 453.86 49.5084 453.824C55.4961 452.276 65.5129 453.642 68.5649 463.798C69.2751 466.156 68.044 468.642 65.655 469.674C65.5086 469.74 59.2626 472.544 54.6481 478.16C53.7743 479.222 52.4807 479.914 51.0538 480.084L39.7714 481.426C39.3603 481.476 38.9514 481.502 38.5425 481.502V481.502ZM52.6292 463.402C51.5832 463.804 45.9012 466.146 41.4954 471.142L47.5541 470.422C50.3241 467.436 53.3201 465.162 55.7931 463.558C54.6546 463.092 53.4191 463.224 52.6292 463.402Z" fill="black"/>
<path d="M124.116 414C123.974 414 123.827 413.994 123.685 413.984C122.205 413.872 120.84 413.198 119.912 412.12C118.059 409.964 116.744 408.046 115.474 406.192C115.459 406.172 115.446 406.15 115.431 406.132C115.276 406.306 115.151 406.462 115.085 406.59C114.06 408.468 111.88 409.548 109.629 409.298C107.377 409.042 105.541 407.504 105.036 405.448C103.538 399.344 99.7518 393.804 95.7463 387.936C94.4463 386.034 93.1507 384.132 91.926 382.208C88.6459 377.052 85.7941 371.504 83.4524 365.72C82.7271 363.928 83.1661 361.908 84.5845 360.518C86.0029 359.128 88.1509 358.614 90.1159 359.194C104.78 363.522 121.89 366.556 142.421 368.47C144.466 368.66 146.218 369.918 146.932 371.708C149.08 377.096 151.721 382.268 154.782 387.08L155.524 388.208C156.351 389.47 156.534 391.004 156.026 392.406C155.705 393.288 155.397 394.11 155.107 394.888C153.632 398.828 152.743 401.204 152.429 405.29C152.285 407.17 151.015 408.816 149.145 409.544C147.277 410.272 145.122 409.964 143.575 408.74C141.87 407.39 139.825 406.024 137.662 404.576C137.09 404.194 136.515 403.808 135.938 403.42C133.661 406.674 131.205 409.78 127.729 412.708C126.737 413.542 125.446 414 124.116 414V414ZM115.911 393.022C117.538 393.022 119.09 393.708 120.117 394.902C121.963 397.054 123.279 398.968 124.548 400.82C124.587 400.876 124.624 400.932 124.665 400.988C126.173 399.112 127.538 397.082 129.014 394.884L129.989 393.436C130.82 392.206 132.187 391.374 133.728 391.154C135.267 390.932 136.84 391.35 138.033 392.288C139.584 393.514 141.412 394.756 143.357 396.058C143.824 394.596 144.362 393.16 144.941 391.602C144.969 391.53 144.995 391.456 145.025 391.382C142.395 387.166 140.06 382.71 138.056 378.096C123.078 376.588 109.848 374.468 97.9869 371.664C98.9963 373.528 100.066 375.346 101.187 377.114C102.356 378.948 103.594 380.76 104.831 382.572C107.423 386.368 110.07 390.242 112.181 394.414C113.034 393.652 114.148 393.16 115.36 393.044C115.543 393.03 115.728 393.022 115.911 393.022Z" fill="black"/>
<path d="M94.0891 479.832C92.7891 479.832 91.4848 479.394 90.456 478.522C86.9025 475.5 82.0362 476.376 81.8296 476.412C79.3394 476.888 76.7717 475.676 75.7644 473.508C74.0382 469.798 71.6621 469.21 69.7853 469.114C67.5426 468.992 65.5388 469.728 65.5216 469.736C64.0968 470.308 62.4739 470.282 61.0706 469.66C59.6695 469.036 58.6235 467.882 58.2059 466.492C57.0631 462.696 53.7679 463.102 52.4076 463.458C50.236 464.012 47.9179 463.266 46.5964 461.568C45.2771 459.87 45.2362 457.588 46.4974 455.85C59.8202 437.462 88.7901 438.938 90.0191 439.018C90.2106 439.03 90.4022 439.05 90.5916 439.08L97.6124 440.2C99.6076 440.514 101.629 439.948 103.034 438.668C110.933 431.506 113.813 415.226 113.873 402.38C113.884 400.168 115.457 398.222 117.745 397.602C120.033 396.978 122.484 397.828 123.776 399.692L124.551 400.816C124.591 400.874 124.63 400.934 124.671 400.99C126.18 399.116 127.544 397.084 129.021 394.886L129.996 393.438C130.827 392.208 132.191 391.376 133.734 391.156C135.273 390.934 136.847 391.352 138.039 392.29C139.591 393.518 141.418 394.758 143.366 396.062C143.831 394.606 144.365 393.18 144.941 391.63L145.226 390.87C146.067 388.616 148.519 387.242 151.045 387.554C153.589 387.88 155.529 389.83 155.681 392.212C156.885 411.086 149.121 429.008 143.557 439.218C150.419 439.69 155.802 442.282 159.545 444.846C161.884 446.452 163.63 448.676 164.596 451.278C165.341 453.282 164.641 455.504 162.853 456.822C159.073 459.612 154.158 460.774 149.386 460.01L142.694 458.944C140.228 458.866 119.783 458.558 110.003 470.138C109.426 471.7 108.032 472.962 106.187 473.38C105.206 473.762 101.422 475.358 97.7437 478.508C96.7063 479.39 95.3955 479.832 94.0891 479.832V479.832ZM83.7408 466.264C86.7174 466.284 90.3527 466.856 93.8049 468.568C96.7385 466.542 99.4009 465.254 101.045 464.552C109.06 454.574 121.849 450.914 131.324 449.608C130.579 449.258 129.921 448.744 129.406 448.09C128.085 446.4 128.029 444.128 129.273 442.386C129.406 442.198 139.879 427.264 143.676 408.816C143.641 408.788 143.609 408.764 143.573 408.736C141.868 407.386 139.823 406.02 137.66 404.572C137.088 404.19 136.513 403.804 135.936 403.416C133.659 406.67 131.203 409.776 127.727 412.704C126.686 413.58 125.334 414.02 123.911 413.996C122.648 424.534 119.275 437.908 110.543 445.824C106.678 449.328 101.17 450.91 95.7894 450.052L89.0979 448.986C87.036 448.92 72.4994 448.694 62.0456 455.326C63.6792 456.254 65.1751 457.536 66.3911 459.252C72.2023 458.526 79.2231 459.97 83.7408 466.264V466.264Z" fill="black"/>
<path d="M177.706 423.96C177.564 423.96 177.417 423.954 177.273 423.944C175.792 423.832 174.428 423.156 173.5 422.078C171.651 419.924 170.336 418.01 169.067 416.156C169.052 416.134 169.036 416.114 169.021 416.09C168.869 416.264 168.746 416.418 168.679 416.544C167.657 418.426 165.472 419.524 163.223 419.256C160.972 419.002 159.134 417.462 158.628 415.406C157.13 409.3 153.342 403.756 149.334 397.886C148.036 395.986 146.741 394.088 145.52 392.166C142.69 387.718 140.185 383 138.056 378.1C99.4526 374.25 52.4744 364.884 23.2332 329.45C-0.190222 301.07 -4.27313 260.192 3.77216 236.14C4.01107 235.428 4.27149 234.726 4.53838 234.024C5.38854 231.778 7.80988 230.386 10.3582 230.734C12.8936 231.062 14.8264 233.006 14.9813 235.38C15.1901 238.53 15.6679 241.63 16.4083 244.592C16.7505 245.968 17.8504 246.494 18.4767 246.684C19.0126 246.846 20.4094 247.116 21.7116 246.072C28.3105 240.784 36.4398 232.542 37.6816 223.308C37.9356 221.412 39.3303 219.818 41.2738 219.198C43.2173 218.572 45.3696 219.04 46.8246 220.392C51.9535 225.14 64.7812 234.096 69.456 229.758C76.8018 222.93 70.8873 209.628 70.827 209.494C69.9145 207.484 70.5085 205.152 72.2928 203.738C74.0813 202.32 76.6426 202.14 78.6313 203.296C83.6547 206.196 98.9834 213.028 109.353 209.816C114.439 208.242 112.706 199.636 111.219 194.648C111.103 194.26 111.017 193.866 110.939 193.472L110.879 193.18C110.552 191.754 110.909 190.268 111.856 189.108C112.805 187.948 114.252 187.23 115.819 187.144C149.138 185.284 182.542 193.474 213.669 202.598C256.245 215.076 268.774 223.574 283.278 233.414C288.412 236.896 293.719 240.496 300.781 244.522C307.416 248.3 313.535 250.952 319.48 252.626C324.572 254.06 328.664 257.52 330.704 262.118C332.742 266.718 332.465 271.852 329.938 276.206C326.981 281.306 324.327 286.822 321.757 292.158C319.329 297.202 316.818 302.422 313.992 307.44C313.589 308.152 313.172 308.858 312.748 309.562C313.869 311.486 314.362 312.784 314.431 312.978C314.891 314.24 314.792 315.618 314.155 316.81C313.516 318.004 312.395 318.91 311.034 319.33C309.02 319.954 307.031 320.546 305.055 321.124C285.235 347.694 254.928 367.5 221.172 376.002C220.733 382.638 219.872 386.98 219.831 387.194C219.803 387.324 219.773 387.452 219.736 387.58C217.696 394.61 217.952 399.862 220.498 403.186C222.088 405.262 221.744 408.12 219.697 409.816C217.65 411.512 214.555 411.504 212.517 409.804C211.751 409.162 209.911 408.428 208.288 407.782C208.096 407.706 207.903 407.628 207.707 407.55C206.82 410.076 206.258 412.174 206.022 415.246C205.88 417.124 204.607 418.77 202.737 419.5C200.873 420.228 198.714 419.92 197.169 418.698C195.46 417.346 193.416 415.98 191.252 414.532C190.68 414.15 190.105 413.764 189.531 413.376C187.254 416.632 184.796 419.74 181.32 422.666C180.325 423.502 179.036 423.96 177.706 423.96V423.96ZM169.506 402.982C171.133 402.982 172.685 403.668 173.711 404.862C175.56 407.016 176.875 408.93 178.145 410.784C178.184 410.838 178.22 410.894 178.259 410.948C179.77 409.072 181.137 407.034 182.613 404.834L183.577 403.396C184.41 402.168 185.775 401.336 187.316 401.114C188.868 400.898 190.432 401.308 191.621 402.246C193.174 403.474 195.004 404.714 196.95 406.02C197.414 404.566 197.948 403.142 198.525 401.596C198.859 400.7 199.216 399.748 199.59 398.702C200.165 397.102 201.568 395.88 203.323 395.45C204.799 395.088 206.364 395.328 207.625 396.09C207.601 392.774 208.152 389.134 209.28 385.192C209.461 384.216 210.361 379.05 210.602 371.916C210.679 369.666 212.362 367.742 214.719 367.212C248.082 359.734 278.147 340.366 297.202 314.074C297.884 313.128 298.898 312.43 300.068 312.092C300.574 311.946 301.082 311.8 301.592 311.65C300.897 310.2 300.977 308.512 301.848 307.11L301.997 306.872C302.836 305.524 303.676 304.178 304.455 302.798C307.128 298.054 309.571 292.98 311.932 288.074C314.579 282.572 317.317 276.884 320.466 271.458V271.456C321.454 269.756 321.559 267.742 320.754 265.926C319.951 264.114 318.35 262.754 316.361 262.194C309.523 260.268 302.589 257.276 295.155 253.046C287.723 248.81 282.237 245.088 276.931 241.492C263.191 232.17 251.327 224.118 210.432 212.132C182.308 203.89 152.352 196.48 122.814 196.9C125.872 212.594 118.044 217.668 112.756 219.304C102.918 222.348 91.7022 219.68 83.6784 216.706C84.3693 223.048 83.4632 230.88 77.0644 236.828C67.6287 245.592 54.0929 238.642 45.9594 232.888C42.1476 241.542 34.8879 248.72 28.741 253.646C24.9572 256.676 19.8692 257.624 15.1341 256.188C13.6469 255.734 12.2824 255.072 11.0792 254.234C9.24115 275.828 15.4914 303.632 31.7693 323.358C59.3381 356.764 105.384 365.01 142.419 368.462C144.464 368.652 146.216 369.91 146.93 371.7C149.078 377.088 151.719 382.26 154.78 387.072C155.944 388.904 157.182 390.712 158.417 392.526C161.011 396.322 163.658 400.198 165.771 404.374C166.624 403.612 167.739 403.12 168.95 403.004C169.138 402.99 169.323 402.982 169.506 402.982V402.982ZM304.24 316.194H304.261H304.24Z" fill="black"/>
<path d="M221.075 334.65C198.155 334.65 177.506 330.95 159.263 323.544C117.663 306.656 103.942 276.1 100.727 267.138C98.243 260.212 97.1346 253.12 97.4381 246.064C97.5586 243.302 100.109 241.158 103.03 241.268C105.998 241.378 108.309 243.704 108.191 246.464C107.941 252.308 108.865 258.202 110.937 263.978C113.796 271.95 126.042 299.146 163.572 314.382C199.44 328.944 245.835 328.03 301.549 311.678C298.282 307.374 291.524 301.05 278.595 297.64C276.759 297.156 275.338 295.806 274.859 294.092C274.815 293.952 270.035 278.05 253.419 272.14C251.838 271.578 250.632 270.354 250.167 268.842C250.126 268.714 245.536 254.474 232.697 248.078C225.11 244.298 215.935 243.934 205.419 246.984C202.576 247.818 199.565 246.34 198.678 243.704C197.791 241.068 199.371 238.262 202.208 237.44C215.634 233.538 227.633 234.17 237.882 239.316C251.256 246.024 257.517 258.492 259.644 263.72C275.265 270.25 281.998 283.136 284.29 288.806C308.137 296.144 314.185 312.294 314.439 313.004C314.889 314.262 314.784 315.634 314.147 316.822C313.507 318.008 312.39 318.91 311.037 319.33C278.063 329.542 248.002 334.65 221.075 334.65V334.65Z" fill="black"/>
<path d="M288.015 247.73C286.935 247.73 285.859 247.428 284.942 246.834C282.062 244.972 279.426 243.184 276.849 241.44C275.564 240.568 274.295 239.71 273.02 238.856C271.817 238.052 271.025 236.822 270.829 235.46C263.916 187.404 263.195 154.852 268.681 138.712C277.941 111.466 299.584 109.958 311.669 111.472C313.363 111.686 314.848 112.636 315.666 114.028C316.488 115.422 316.544 117.096 315.823 118.538C313.546 123.08 311.633 128.41 310.132 134.382C301.226 169.85 296.104 213.108 293.375 243.152C293.213 244.934 292.042 246.498 290.301 247.258C289.576 247.574 288.795 247.73 288.015 247.73V247.73ZM281.193 232.008C281.858 232.458 282.523 232.906 283.194 233.362C283.291 233.426 283.386 233.492 283.485 233.56C286.408 203.91 291.442 164.83 299.657 132.108C300.637 128.21 301.784 124.538 303.088 121.124C291.453 121.868 283.347 128.772 278.946 141.724C274.086 156.02 274.865 187.212 281.193 232.008V232.008Z" fill="black"/>
<path d="M323.283 282.278C322.112 282.278 320.939 281.924 319.962 281.214C317.945 279.744 317.323 277.158 318.477 275.03C319.127 273.832 319.783 272.642 320.466 271.466C321.415 269.832 321.555 267.962 320.859 266.2C320.169 264.444 318.718 263.054 316.882 262.384C315.343 261.826 314.168 260.64 313.692 259.17C313.217 257.702 313.494 256.11 314.446 254.856C338.984 222.422 383.069 164.764 402.591 142.994C421.959 121.396 437.338 120.654 446.818 123.854C459.082 127.978 465.698 140.496 465.698 150.178C465.698 167.982 447.737 184.876 446.973 185.586C446.874 185.678 446.771 185.768 446.663 185.852L326.78 281.08C325.773 281.876 324.529 282.278 323.283 282.278V282.278ZM326.438 256.388C328.436 258.132 329.996 260.306 330.964 262.76C331.154 263.238 331.315 263.72 331.457 264.21L439.488 178.396C440.966 176.968 454.935 163.156 454.935 150.176C454.935 143.806 450.527 135.734 443.151 133.254C434.326 130.284 422.853 136.016 410.856 149.394C392.391 169.982 351.349 223.52 326.438 256.388V256.388ZM406.723 146.194H406.745H406.723Z" fill="black"/>
<path d="M318.843 262.728C318.18 262.728 317.511 262.614 316.865 262.376C316.656 262.3 316.51 262.24 316.355 262.196C313.376 261.358 310.244 260.242 306.792 258.79C304.126 257.668 302.914 254.772 304.063 252.27C319.415 218.892 358.527 138.09 390.058 108.792C402.716 97.03 414.065 92.588 423.813 95.586C438.812 100.21 443.13 120.64 444.096 126.792C444.324 128.248 443.853 129.722 442.807 130.824C441.759 131.924 440.319 132.552 438.661 132.514C438.562 132.514 438.459 132.512 438.358 132.512C432.644 132.512 423.318 135.5 410.858 149.394C391.56 170.912 347.684 228.306 323.247 260.602C322.213 261.966 320.554 262.728 318.843 262.728V262.728ZM316.105 251.564C316.327 251.64 316.544 251.714 316.764 251.788C341.664 218.912 383.649 164.112 402.589 142.992C412.69 131.728 422.681 125.068 432.37 123.116C430.472 115.824 426.63 106.992 420.423 105.078C414.958 103.386 407.076 107.118 397.667 115.862C368.283 143.168 330.11 221.508 316.105 251.564ZM393.861 112.328H393.883H393.861Z" fill="black"/>
<path d="M309.009 259.236C308.251 259.236 307.496 259.088 306.794 258.792C303.015 257.206 299.216 255.334 295.501 253.236C293.409 252.052 292.44 249.706 293.144 247.528L317.96 170.66C337.656 108.276 357.905 77.366 379.854 76.176C399.868 75.092 411.2 99.378 411.674 100.412C412.308 101.796 412.235 103.374 411.478 104.706L411.116 105.336C410.645 106.162 409.935 106.85 409.065 107.318C405.567 109.208 401.732 112.082 397.664 115.86C366.611 144.716 325.743 230.57 313.955 256.198C313.387 257.434 312.306 258.406 310.959 258.894C310.333 259.124 309.672 259.236 309.009 259.236V259.236ZM304.674 246.624C305.214 246.902 305.757 247.172 306.299 247.438C322.951 211.658 359.96 136.762 390.058 108.794C393.444 105.646 396.756 103.004 399.946 100.906C396.285 94.762 388.894 85.694 380.463 86.162C371.107 86.684 351.889 98.722 328.283 173.498C328.281 173.508 328.278 173.518 328.274 173.528L304.674 246.624ZM323.119 172.088H323.141H323.119Z" fill="black"/>
<path d="M298.299 253.964C297.326 253.964 296.358 253.718 295.503 253.238L295.213 253.082C295.193 253.07 295.174 253.06 295.157 253.048C291.741 251.102 288.496 249.128 284.946 246.836C283.369 245.816 282.493 244.09 282.656 242.31C285.416 211.934 290.605 168.162 299.657 132.106C304.476 112.916 313.103 99.898 325.293 93.41C337.652 86.836 350.721 88.48 359.504 91.02C361.17 91.5 362.483 92.704 363.023 94.244C363.563 95.784 363.266 97.474 362.227 98.776C350.873 112.97 339.453 138.108 328.285 173.492L303.454 250.4C302.974 251.882 301.786 253.076 300.23 253.63C299.604 253.856 298.949 253.964 298.299 253.964V253.964ZM293.646 240.254C294.163 240.578 294.677 240.896 295.187 241.21L317.967 170.652C328.033 138.764 338.457 114.736 349.007 99.076C343.33 98.402 336.769 98.836 330.642 102.092C321.15 107.142 314.252 118.008 310.139 134.384C301.515 168.724 296.435 210.372 293.646 240.254V240.254Z" fill="black"/>
<path d="M270.578 166.762C269.889 166.762 269.192 166.638 268.529 166.386C266.443 165.588 265.115 163.664 265.203 161.57C265.608 151.894 266.744 144.418 268.684 138.712C277.943 111.466 299.586 109.958 311.671 111.472C313.365 111.686 314.85 112.636 315.668 114.028C316.49 115.422 316.546 117.096 315.825 118.538C313.548 123.08 311.635 128.41 310.135 134.382C308.658 140.256 307.199 146.756 305.791 153.7C305.518 155.044 304.666 156.226 303.428 156.97C302.191 157.714 300.684 157.956 299.251 157.638C290.243 155.636 281.24 158.372 274.54 165.148C273.5 166.198 272.052 166.762 270.578 166.762V166.762ZM303.086 121.124C291.451 121.868 283.345 128.772 278.944 141.724C278.093 144.224 277.413 147.278 276.908 150.864C282.861 147.884 289.462 146.576 296.205 147.084C297.333 141.776 298.491 136.754 299.657 132.108C300.637 128.208 301.784 124.538 303.086 121.124V121.124ZM273.815 140.216H273.836H273.815Z" fill="black"/>
<path d="M330.093 156.4C329 156.4 327.917 156.09 326.998 155.492C316.308 148.512 308.09 152.24 304.141 155.086C302.367 156.362 299.937 156.484 298.028 155.396C296.119 154.308 295.135 152.236 295.559 150.192C296.937 143.518 298.278 137.602 299.655 132.106C304.474 112.916 313.101 99.898 325.291 93.41C337.65 86.836 350.719 88.48 359.502 91.02C361.168 91.5 362.481 92.704 363.021 94.244C363.561 95.784 363.264 97.474 362.225 98.776C353.23 110.022 344.137 128.262 335.194 152.99C334.652 154.486 333.384 155.658 331.77 156.148C331.223 156.318 330.657 156.4 330.093 156.4ZM315.076 141.516C318.731 141.516 322.79 142.21 327.123 144.05C334.286 125.112 341.619 110.04 349.01 99.076C343.325 98.402 336.769 98.836 330.642 102.092C321.15 107.142 314.252 118.008 310.139 134.384C309.5 136.926 308.869 139.564 308.239 142.334C310.307 141.834 312.599 141.516 315.076 141.516V141.516Z" fill="black"/>
<path d="M359.812 162.326C358.034 162.326 356.364 161.51 355.363 160.136L355.212 159.932C354.967 159.606 354.726 159.276 354.511 158.93C349.898 151.606 342.699 149.678 333.128 153.186C331.175 153.9 328.952 153.496 327.433 152.15C325.915 150.8 325.379 148.756 326.062 146.912C343.416 99.948 361.178 76.808 380.362 76.172C400.027 75.592 411.211 99.392 411.676 100.408C412.311 101.794 412.237 103.372 411.48 104.704L411.118 105.334C410.649 106.16 409.937 106.848 409.067 107.316C405.57 109.206 401.734 112.08 397.666 115.858C388.252 124.606 377.086 139.394 364.478 159.81C363.555 161.304 361.869 162.254 360.016 162.318C359.947 162.324 359.878 162.326 359.812 162.326V162.326ZM341.593 141.534C348.4 141.534 354.476 143.85 359.244 148.32C370.685 130.454 381.036 117.178 390.056 108.794C393.441 105.646 396.752 103.004 399.941 100.908C396.321 94.838 389.148 85.888 380.726 86.17C373.27 86.43 358.32 94.202 339.513 141.606C340.213 141.556 340.908 141.534 341.593 141.534Z" fill="black"/>
<path d="M387.041 174.7C386.965 174.7 386.892 174.698 386.817 174.696C385.045 174.626 383.423 173.75 382.48 172.354C375.571 162.098 365.685 161.874 360.419 162.66C358.365 162.976 356.319 162.148 355.143 160.564C353.964 158.98 353.871 156.908 354.9 155.238C368.081 133.85 379.908 118.224 390.058 108.792C402.716 97.03 414.065 92.588 423.813 95.586C438.812 100.21 443.129 120.64 444.096 126.792C444.324 128.248 443.853 129.722 442.807 130.824C441.758 131.924 440.319 132.552 438.661 132.514C438.562 132.514 438.459 132.512 438.358 132.512C432.643 132.512 423.318 135.5 410.858 149.394C406.149 154.644 399.586 162.486 391.347 172.696C390.327 173.96 388.73 174.7 387.041 174.7V174.7ZM368.91 152.78C374.454 153.556 381.141 155.808 386.972 161.476C393.37 153.634 398.609 147.434 402.589 142.994C412.689 131.73 422.68 125.07 432.37 123.118C430.472 115.826 426.63 106.994 420.423 105.08C414.958 103.388 407.076 107.12 397.666 115.864C389.369 123.574 379.714 135.97 368.91 152.78Z" fill="black"/>
<path d="M422.844 203.192C422.321 203.192 421.794 203.122 421.277 202.976C419.521 202.48 418.156 201.184 417.661 199.54C414.155 187.892 408.021 180.248 399.427 176.826C393.355 174.408 388.295 175.036 388.244 175.04C386.692 175.262 385.114 174.842 383.924 173.892C382.732 172.942 382.047 171.558 382.047 170.1V169.22C382.047 168.138 382.426 167.086 383.123 166.22C391.291 156.104 397.841 148.29 402.587 142.996C421.955 121.398 437.333 120.656 446.814 123.856C459.078 127.98 465.694 140.498 465.694 150.18C465.694 167.984 447.733 184.878 446.969 185.588C446.87 185.68 446.767 185.77 446.659 185.854L426.337 201.996C425.354 202.778 424.11 203.192 422.844 203.192V203.192ZM396.984 165.76C405.738 167.498 417.993 173.012 425.362 189.614L439.486 178.396C440.966 176.968 454.935 163.156 454.935 150.176C454.935 143.806 450.527 135.734 443.151 133.254C434.327 130.284 422.853 136.016 410.856 149.394C407.279 153.382 402.628 158.872 396.984 165.76V165.76ZM443.166 182.048H443.188H443.166Z" fill="black"/>
<path d="M228.933 298.576C226.466 298.576 224.241 296.99 223.685 294.658C223.04 291.962 224.869 289.292 227.77 288.694C248.719 284.368 266.809 284.14 281.533 288.02C284.391 288.774 286.055 291.538 285.243 294.194C284.432 296.85 281.457 298.39 278.599 297.642C265.61 294.218 249.296 294.496 230.106 298.456C229.71 298.538 229.32 298.576 228.933 298.576V298.576Z" fill="black"/>
</svg>
